<svg viewBox="0 0 819 601" version="1.1" xmlns="http://www.w3.org/2000/svg" ><path fill="rgb(229,230,226)" stroke="rgb(229,230,226)" stroke-width="1" opacity="1" d="M 239.5 66 Q 244 65 245 67.5 L 243.5 67 Q 237 66 236 70.5 L 235.5 73 L 235 70.5 L 239.5 66 Z " /><path fill="rgb(229,230,226)" stroke="rgb(229,230,226)" stroke-width="1" opacity="1" d="M 246.5 68 L 249 69 L 256 79.5 L 255 79.5 L 246.5 68 Z " /><path fill="rgb(229,230,226)" stroke="rgb(229,230,226)" stroke-width="1" opacity="1" d="M 234.5 74 L 235 77.5 L 234 77.5 L 234.5 74 Z " /><path fill="rgb(229,230,226)" stroke="rgb(229,230,226)" stroke-width="1" opacity="1" d="M 168.5 79 L 171 79.5 L 168.5 80 L 168.5 79 Z " /><path fill="rgb(229,230,226)" stroke="rgb(229,230,226)" stroke-width="1" opacity="1" d="M 163.5 80 L 159 85.5 L 157.5 88 L 158 86.5 L 161 81 L 163.5 80 Z " /><path fill="rgb(229,230,226)" stroke="rgb(229,230,226)" stroke-width="1" opacity="1" d="M 233.5 80 L 234 96.5 L 233 96.5 L 233.5 80 Z " /><path fill="rgb(229,230,226)" stroke="rgb(229,230,226)" stroke-width="1" opacity="1" d="M 175.5 81 L 177.5 84 L 175.5 81 Z " /><path fill="rgb(229,230,226)" stroke="rgb(229,230,226)" stroke-width="1" opacity="1" d="M 257.5 83 L 258 89.5 L 257 89.5 L 257.5 83 Z " /><path fill="rgb(229,230,226)" stroke="rgb(229,230,226)" stroke-width="1" opacity="1" d="M 179.5 84 L 183.5 89 L 179.5 84 Z " /><path fill="rgb(229,230,226)" stroke="rgb(229,230,226)" stroke-width="1" opacity="1" d="M 184.5 90 L 185.5 92 L 184.5 90 Z " /><path fill="rgb(229,230,226)" stroke="rgb(229,230,226)" stroke-width="1" opacity="1" d="M 155.5 92 L 156 98.5 L 155 98.5 L 155.5 92 Z " /><path fill="rgb(229,230,226)" stroke="rgb(229,230,226)" stroke-width="1" opacity="1" d="M 186.5 93 L 191 101.5 L 190 101.5 L 186.5 93 Z " /><path fill="rgb(229,230,226)" stroke="rgb(229,230,226)" stroke-width="1" opacity="1" d="M 242 93 Q 244.7 91.9 244 94.5 L 242.5 97 L 242 93 Z " /><path fill="rgb(229,230,226)" stroke="rgb(229,230,226)" stroke-width="1" opacity="1" d="M 258.5 95 L 259 99.5 L 258 99.5 L 258.5 95 Z " /><path fill="rgb(229,230,226)" stroke="rgb(229,230,226)" stroke-width="1" opacity="1" d="M 232.5 99 L 233 101.5 L 232 101.5 L 232.5 99 Z " /><path fill="rgb(229,230,226)" stroke="rgb(229,230,226)" stroke-width="1" opacity="1" d="M 155.5 101 L 156 107.5 L 155 107.5 L 155.5 101 Z " /><path fill="rgb(229,230,226)" stroke="rgb(229,230,226)" stroke-width="1" opacity="1" d="M 259.5 101 L 260 104.5 L 259 104.5 L 259.5 101 Z " /><path fill="rgb(229,230,226)" stroke="rgb(229,230,226)" stroke-width="1" opacity="1" d="M 191.5 103 L 194 107 L 200 110.5 L 197 111 L 195.5 108 L 192 105.5 L 191.5 103 Z " /><path fill="rgb(229,230,226)" stroke="rgb(229,230,226)" stroke-width="1" opacity="1" d="M 231.5 103 L 232 104.5 L 229.5 106 L 229.5 105 Q 232 105.7 231.5 103 Z " /><path fill="rgb(229,230,226)" stroke="rgb(229,230,226)" stroke-width="1" opacity="1" d="M 225.5 106 L 228 106.5 L 225.5 107 L 225.5 106 Z " /><path fill="rgb(229,230,226)" stroke="rgb(229,230,226)" stroke-width="1" opacity="1" d="M 260.5 106 L 261 108.5 L 260 108.5 L 260.5 106 Z " /><path fill="rgb(229,230,226)" stroke="rgb(229,230,226)" stroke-width="1" opacity="1" d="M 221.5 107 L 224 107.5 L 221.5 108 L 221.5 107 Z " /><path fill="rgb(229,230,226)" stroke="rgb(229,230,226)" stroke-width="1" opacity="1" d="M 209.5 108 L 217 109.5 L 214.5 110 L 209.5 109 L 206.5 110 L 206.5 109 L 209.5 108 Z " /><path fill="rgb(229,230,226)" stroke="rgb(229,230,226)" stroke-width="1" opacity="1" d="M 156.5 110 L 160 118.5 L 158 117.5 L 156.5 110 Z " /><path fill="rgb(229,230,226)" stroke="rgb(229,230,226)" stroke-width="1" opacity="1" d="M 262.5 112 L 265 118.5 L 263 117.5 L 262.5 112 Z " /><path fill="rgb(229,230,226)" stroke="rgb(229,230,226)" stroke-width="1" opacity="1" d="M 160.5 120 L 162 131.5 L 161 131.5 Q 158.8 127 160.5 120 Z " /><path fill="rgb(229,230,226)" stroke="rgb(229,230,226)" stroke-width="1" opacity="1" d="M 264.5 121 L 265 123.5 L 264 123.5 L 264.5 121 Z " /><path fill="rgb(229,230,226)" stroke="rgb(229,230,226)" stroke-width="1" opacity="1" d="M 248.5 129 Q 248.8 134.7 252.5 137 L 255 138.5 L 252.5 139 Q 247.6 136.8 247 130.5 L 248.5 129 Z " /><path fill="rgb(229,230,226)" stroke="rgb(229,230,226)" stroke-width="1" opacity="1" d="M 262.5 129 L 263 131.5 L 262 131.5 L 262.5 129 Z " /><path fill="rgb(229,230,226)" stroke="rgb(229,230,226)" stroke-width="1" opacity="1" d="M 263.5 133 L 268 145.5 L 269 153.5 L 272 156.5 L 272 163.5 L 266 174.5 L 275 181.5 Q 281.5 188 284 198.5 L 283 198.5 Q 279.5 185 269.5 178 L 265.5 176 L 264 176.5 L 271 162.5 L 271 156.5 L 268 155 L 267 145.5 L 263 135.5 L 263.5 133 Z " /><path fill="rgb(229,230,226)" stroke="rgb(229,230,226)" stroke-width="1" opacity="1" d="M 164.5 138 L 167 139.5 L 165.5 140 L 164.5 138 Z " /><path fill="rgb(229,230,226)" stroke="rgb(229,230,226)" stroke-width="1" opacity="1" d="M 197.5 138 Q 197.4 143.6 201.5 145 L 203 145.5 L 199.5 146 Q 195.3 144.3 197.5 138 Z " /><path fill="rgb(229,230,226)" stroke="rgb(229,230,226)" stroke-width="1" opacity="1" d="M 169.5 141 L 170.5 143 L 169.5 141 Z " /><path fill="rgb(229,230,226)" stroke="rgb(229,230,226)" stroke-width="1" opacity="1" d="M 172.5 146 L 175 150.5 L 173 149.5 L 172.5 146 Z " /><path fill="rgb(229,230,226)" stroke="rgb(229,230,226)" stroke-width="1" opacity="1" d="M 175.5 152 L 177 155.5 L 176 155.5 L 175.5 152 Z " /><path fill="rgb(229,230,226)" stroke="rgb(229,230,226)" stroke-width="1" opacity="1" d="M 247.5 153 L 250 153.5 L 248.5 156 L 247.5 153 Z " /><path fill="rgb(229,230,226)" stroke="rgb(229,230,226)" stroke-width="1" opacity="1" d="M 249.5 157 L 251 157.5 L 249 158.5 L 249.5 160 Q 246.5 158.5 249.5 157 Z " /><path fill="rgb(229,230,226)" stroke="rgb(229,230,226)" stroke-width="1" opacity="1" d="M 178.5 161 L 179 169.5 L 178 171.5 L 180 174.5 L 179 174.5 L 177.5 172 L 175.5 175 L 169 180.5 L 165.5 186 L 166 184.5 Q 169.5 176 177 171.5 L 178.5 161 Z " /><path fill="rgb(229,230,226)" stroke="rgb(229,230,226)" stroke-width="1" opacity="1" d="M 268.5 163 L 268 164.5 L 265.5 168 Q 262.9 168.7 264 166 L 268.5 163 Z " /><path fill="rgb(229,230,226)" stroke="rgb(229,230,226)" stroke-width="1" opacity="1" d="M 253.5 164 L 252.5 166 L 253.5 164 Z " /><path fill="rgb(229,230,226)" stroke="rgb(229,230,226)" stroke-width="1" opacity="1" d="M 253.5 168 L 256.5 174 L 259 175.5 L 258.5 177 L 254.5 176 L 253 176.5 L 254 172.5 L 252 172.5 L 253.5 168 Z " /><path fill="rgb(229,230,226)" stroke="rgb(229,230,226)" stroke-width="1" opacity="1" d="M 262.5 169 L 264 169.5 L 263.5 172 L 261 173.5 L 261.5 175 L 259 174 L 262.5 169 Z " /><path fill="rgb(229,230,226)" stroke="rgb(229,230,226)" stroke-width="1" opacity="1" d="M 187.5 176 L 190 176.5 L 187 178.5 L 189 184.5 L 188 184.5 L 186 177.5 L 187.5 176 Z " /><path fill="rgb(229,230,226)" stroke="rgb(229,230,226)" stroke-width="1" opacity="1" d="M 231.5 176 L 232 177.5 L 230 178.5 L 231.5 176 Z " /><path fill="rgb(229,230,226)" stroke="rgb(229,230,226)" stroke-width="1" opacity="1" d="M 262.5 178 L 263 179.5 L 258 183.5 L 262.5 178 Z " /><path fill="rgb(229,230,226)" stroke="rgb(229,230,226)" stroke-width="1" opacity="1" d="M 241.5 180 L 243 180.5 L 240 184.5 L 241.5 186 L 244 184.5 Q 245.7 189.3 241.5 188 Q 240.3 190.3 239 187.5 L 240 185.5 L 239 182.5 L 241.5 180 Z " /><path fill="rgb(229,230,226)" stroke="rgb(229,230,226)" stroke-width="1" opacity="1" d="M 250.5 183 Q 254.9 181.5 254 184.5 L 250.5 188 L 249.5 187 Q 245.8 186 247 189 Q 249.7 187.9 249 190.5 L 246 188.5 L 245 186.5 L 249 186 L 250.5 183 Z " /><path fill="rgb(229,230,226)" stroke="rgb(229,230,226)" stroke-width="1" opacity="1" d="M 163.5 189 L 164 190.5 L 161.5 195 L 161 193.5 L 163.5 189 Z " /><path fill="rgb(229,230,226)" stroke="rgb(229,230,226)" stroke-width="1" opacity="1" d="M 196.5 189 L 201 191.5 L 198.5 192 L 196.5 189 Z " /><path fill="rgb(229,230,226)" stroke="rgb(229,230,226)" stroke-width="1" opacity="1" d="M 252.5 190 L 251.5 192 L 252.5 190 Z " /><path fill="rgb(229,230,226)" stroke="rgb(229,230,226)" stroke-width="1" opacity="1" d="M 248.5 193 L 250.5 194 L 252 193.5 Q 251.8 198.3 248.5 200 L 246 201.5 L 246 205.5 L 243 210.5 L 246.5 219 Q 249.5 218.1 248 222.5 L 247 225.5 L 253 229.5 L 251 230 L 250 235 L 252 235.5 L 249.5 240 Q 245.5 239.5 245 242.5 L 249 250.5 L 246 257.5 L 250 266 L 242.5 270 L 238.5 268 L 236.5 268 L 233.5 269 L 229.5 266 L 222 270.5 L 218.5 276 L 216.5 276 L 212 272.5 L 209.5 268 L 207.5 268 L 199.5 262 L 192 262 L 204.5 244 L 207 242.5 Q 207.8 240.3 205.5 241 L 201.5 240 L 199.5 241 L 195 239.5 L 199.5 239 L 201.5 239 L 208 240 Q 209.5 236.2 206.5 237 L 204 236 L 205.5 233 L 209.5 230 L 212 230 L 212 226 L 213.5 226 L 218 222.5 L 217 217 Q 214.3 218.1 215 215.5 L 214 212 Q 211.3 213.1 212 210.5 L 213 206.5 L 213 204.5 L 211.5 201 L 210 200.5 L 215.5 200 Q 220.1 202.9 228.5 202 L 230.5 204 L 237.5 205 L 245 199.5 Q 244.2 196.9 247.5 198 L 249 195.5 L 248.5 193 Z " /><path fill="rgb(229,230,226)" stroke="rgb(229,230,226)" stroke-width="1" opacity="1" d="M 211.5 197 L 214 198.5 L 212.5 198 L 211.5 197 Z " /><path fill="rgb(229,230,226)" stroke="rgb(229,230,226)" stroke-width="1" opacity="1" d="M 159.5 198 L 156.5 202 L 159.5 198 Z " /><path fill="rgb(229,230,226)" stroke="rgb(229,230,226)" stroke-width="1" opacity="1" d="M 155.5 203 L 155 204.5 L 150 216.5 L 147 229.5 L 142.5 235 L 118 258.5 L 115.5 262 L 117 259.5 L 141.5 234 L 145 231.5 L 149 216.5 L 155.5 203 Z " /><path fill="rgb(229,230,226)" stroke="rgb(229,230,226)" stroke-width="1" opacity="1" d="M 285.5 203 L 289 212.5 L 288 212.5 L 285.5 203 Z " /><path fill="rgb(229,230,226)" stroke="rgb(229,230,226)" stroke-width="1" opacity="1" d="M 290.5 217 L 291 220.5 L 290 220.5 L 290.5 217 Z " /><path fill="rgb(229,230,226)" stroke="rgb(229,230,226)" stroke-width="1" opacity="1" d="M 291.5 222 L 292 227.5 L 290.5 233 L 290 228.5 L 291.5 222 Z " /><path fill="rgb(229,230,226)" stroke="rgb(229,230,226)" stroke-width="1" opacity="1" d="M 289.5 234 L 290 236.5 L 289 236.5 L 289.5 234 Z " /><path fill="rgb(229,230,226)" stroke="rgb(229,230,226)" stroke-width="1" opacity="1" d="M 288.5 239 L 289 241.5 L 288 241.5 L 288.5 239 Z " /><path fill="rgb(229,230,226)" stroke="rgb(229,230,226)" stroke-width="1" opacity="1" d="M 287.5 244 L 288 245.5 L 287 246.5 L 287 266.5 L 285.5 270 L 285 267.5 L 286 266.5 L 286 246.5 L 287.5 244 Z " /><path fill="rgb(229,230,226)" stroke="rgb(229,230,226)" stroke-width="1" opacity="1" d="M 114.5 263 L 113.5 265 L 114.5 263 Z " /><path fill="rgb(229,230,226)" stroke="rgb(229,230,226)" stroke-width="1" opacity="1" d="M 111.5 268 L 110.5 270 L 111.5 268 Z " /><path fill="rgb(229,230,226)" stroke="rgb(229,230,226)" stroke-width="1" opacity="1" d="M 109.5 271 L 109 272.5 L 107.5 278 L 107 274.5 L 109.5 271 Z " /><path fill="rgb(229,230,226)" stroke="rgb(229,230,226)" stroke-width="1" opacity="1" d="M 284.5 271 L 285 272.5 L 280.5 280 L 281 278.5 L 284.5 271 Z " /><path fill="rgb(229,230,226)" stroke="rgb(229,230,226)" stroke-width="1" opacity="1" d="M 254.5 274 L 256 277.5 L 255.5 290 Q 253.3 289.3 254 285.5 Q 256.5 284 255 278.5 L 254.5 274 Z " /><path fill="rgb(229,230,226)" stroke="rgb(229,230,226)" stroke-width="1" opacity="1" d="M 279.5 281 L 280 282.5 L 278.5 285 L 278 283.5 L 279.5 281 Z " /><path fill="rgb(229,230,226)" stroke="rgb(229,230,226)" stroke-width="1" opacity="1" d="M 107.5 283 L 108 287.5 L 107 287.5 L 107.5 283 Z " /><path fill="rgb(229,230,226)" stroke="rgb(229,230,226)" stroke-width="1" opacity="1" d="M 277.5 286 L 278 288.5 L 275 299.5 L 274.5 308 L 274 299.5 L 277.5 286 Z " /><path fill="rgb(229,230,226)" stroke="rgb(229,230,226)" stroke-width="1" opacity="1" d="M 163.5 288 L 165 293.5 L 163 294.5 L 163 292.5 L 163.5 288 Z " /><path fill="rgb(229,230,226)" stroke="rgb(229,230,226)" stroke-width="1" opacity="1" d="M 108.5 290 L 109 293.5 L 108 293.5 L 108.5 290 Z " /><path fill="rgb(229,230,226)" stroke="rgb(229,230,226)" stroke-width="1" opacity="1" d="M 256.5 292 L 257 298.5 L 255.5 303 L 255 299.5 L 256.5 292 Z " /><path fill="rgb(229,230,226)" stroke="rgb(229,230,226)" stroke-width="1" opacity="1" d="M 252.5 293 L 250 296.5 L 246.5 301 L 239 306.5 L 242.5 308 L 246.5 307 Q 248.2 309.8 253.5 309 L 255.5 311 L 257 310.5 L 255 324.5 L 257.5 330 L 259 329.5 L 265.5 340 L 274.5 341 L 276.5 340 L 277.5 341 L 291.5 341 L 294 335.5 L 288.5 329 L 281 323.5 L 276 314.5 L 275 309.5 L 276 309.5 Q 277.1 317.9 282.5 322 L 285.5 324 L 287 323.5 L 289 326.5 L 290 326.5 L 290.5 325 L 294 327.5 Q 294.8 330.1 291.5 329 L 291.5 330 L 296 332.5 L 294 333.5 L 295.5 337 L 297 336.5 Q 299.1 342.4 294.5 341 L 293.5 342 L 284.5 342 L 280.5 344 L 268.5 345 L 266.5 345 L 264.5 344 L 260 345 L 259.5 343 L 251.5 343 L 248.5 344 L 245.5 343 L 243 344 L 242.5 342 L 231.5 342 L 230.5 343 L 212.5 344 L 211.5 345 L 210 344.5 L 209.5 346 L 192.5 346 L 184.5 348 L 160.5 350 L 158.5 350 L 153.5 351 L 148.5 350 Q 147 352.5 145.5 349 L 141.5 349 L 135.5 345 L 131.5 345 L 114 340 L 113 336 L 111 336 L 111 333 L 109 333 L 109 330 Q 105.7 331.1 107 327 L 110 325.5 Q 109.3 322.9 112 324 L 112 322 L 115 322 L 115 318.5 L 111 310.5 Q 113.8 309.3 113.5 305 L 114 308.5 Q 111.3 309.6 112 313 Q 115.3 311.7 114 316.5 Q 117 317.5 116 322.5 L 115 327.5 L 119.5 332 L 137.5 333 L 140 332 Q 139 339.5 142 343 L 151.5 345 L 152.5 344 L 163 344 Q 162 341 165 342 L 165.5 345 L 168.5 340 L 169 343 L 173 343 L 173 336 L 183.5 336 Q 185.3 333.3 191.5 335 L 194 333.5 L 173.5 333 L 170.5 334 L 164 329.5 L 162 324.5 L 204.5 324 L 206 327 L 209.5 328 L 240.5 328 L 246 326 Q 247 322.2 244.5 321 L 242 322.5 L 243 315.5 Q 241.4 310 235 311 L 238 316.5 L 237 316.5 L 234 311.5 L 242.5 302 L 248 299 L 252.5 293 Z " /><path fill="rgb(229,230,226)" stroke="rgb(229,230,226)" stroke-width="1" opacity="1" d="M 109.5 295 L 110 297.5 L 109 297.5 L 109.5 295 Z " /><path fill="rgb(229,230,226)" stroke="rgb(229,230,226)" stroke-width="1" opacity="1" d="M 168 295 Q 170.7 293.9 170 296.5 L 172 296.5 L 171.5 298 Q 174.8 296.9 174 299.5 L 174.5 301 L 171.5 299 L 170 299.5 L 168 295 Z " /><path fill="rgb(229,230,226)" stroke="rgb(229,230,226)" stroke-width="1" opacity="1" d="M 110.5 299 L 113 303.5 L 111 302.5 L 110.5 299 Z " /><path fill="rgb(229,230,226)" stroke="rgb(229,230,226)" stroke-width="1" opacity="1" d="M 202 299 L 205 299.5 L 201.5 304 Q 199.3 304.8 200 302.5 L 202 299 Z " /><path fill="rgb(229,230,226)" stroke="rgb(229,230,226)" stroke-width="1" opacity="1" d="M 172.5 303 Q 174.8 302.3 174 304.5 L 176.5 306 L 178.5 305 L 178.5 306 L 176 307.5 Q 177.5 311.9 174.5 311 L 172 309.5 L 173 314.5 L 168.5 318 L 169 316.5 Q 169.9 313.5 165.5 315 L 163.5 315 L 162 314.5 L 162 304 Q 165.1 303.3 164.5 306 L 169.5 306 L 172.5 303 Z " /><path fill="rgb(229,230,226)" stroke="rgb(229,230,226)" stroke-width="1" opacity="1" d="M 198.5 304 L 197.5 306 L 198.5 304 Z " /><path fill="rgb(229,230,226)" stroke="rgb(229,230,226)" stroke-width="1" opacity="1" d="M 255.5 306 L 256 308.5 L 255 308.5 L 255.5 306 Z " /><path fill="rgb(229,230,226)" stroke="rgb(229,230,226)" stroke-width="1" opacity="1" d="M 187.5 309 L 191 309.5 L 185.5 312 L 185 310 L 187.5 309 Z " /><path fill="rgb(229,230,226)" stroke="rgb(229,230,226)" stroke-width="1" opacity="1" d="M 196.5 311 Q 199.8 309.9 199 312.5 L 200 314.5 Q 196.8 317.8 189.5 317 L 186 315.5 L 188.5 313 L 196.5 311 Z " /><path fill="rgb(229,230,226)" stroke="rgb(229,230,226)" stroke-width="1" opacity="1" d="M 136.5 313 L 142 316.5 L 140.5 322 L 136 318.5 L 137 316.5 L 136.5 313 Z " /><path fill="rgb(229,230,226)" stroke="rgb(229,230,226)" stroke-width="1" opacity="1" d="M 203.5 318 Q 207.5 317.5 208 320.5 Q 205.6 323.1 199.5 322 L 197.5 321 L 196.5 322 L 187 322 L 187.5 320 L 196.5 320 L 203.5 318 Z " /><path fill="rgb(229,230,226)" stroke="rgb(229,230,226)" stroke-width="1" opacity="1" d="M 238.5 318 L 239 322.5 L 238 322.5 L 238.5 318 Z " /><path fill="rgb(229,230,226)" stroke="rgb(229,230,226)" stroke-width="1" opacity="1" d="M 173.5 319 Q 174.8 321.8 179 321.5 L 162 323 L 162.5 320 L 163.5 321 L 171.5 321 L 173.5 319 Z " /><path fill="rgb(229,230,226)" stroke="rgb(229,230,226)" stroke-width="1" opacity="1" d="M 131.5 320 L 134 321 L 133 324.5 L 133.5 326 L 132 325.5 Q 133 330 130.5 331 L 130 321.5 L 131.5 320 Z " /><path fill="rgb(229,230,226)" stroke="rgb(229,230,226)" stroke-width="1" opacity="1" d="M 50.5 454 L 56 454.5 L 50.5 455 L 50.5 454 Z " /><path fill="rgb(229,230,226)" stroke="rgb(229,230,226)" stroke-width="1" opacity="1" d="M 73.5 454 L 76 454.5 L 73.5 455 L 73.5 454 Z " /><path fill="rgb(229,230,226)" stroke="rgb(229,230,226)" stroke-width="1" opacity="1" d="M 85.5 454 L 92 454.5 L 85.5 455 L 85.5 454 Z " /><path fill="rgb(229,230,226)" stroke="rgb(229,230,226)" stroke-width="1" opacity="1" d="M 105.5 454 L 108 454.5 L 105.5 455 L 105.5 454 Z " /><path fill="rgb(229,230,226)" stroke="rgb(229,230,226)" stroke-width="1" opacity="1" d="M 116.5 454 Q 119.3 455.3 118 460.5 L 117 460.5 L 116.5 454 Z " /><path fill="rgb(229,230,226)" stroke="rgb(229,230,226)" stroke-width="1" opacity="1" d="M 48.5 455 L 46.5 458 L 48.5 455 Z " /><path fill="rgb(229,230,226)" stroke="rgb(229,230,226)" stroke-width="1" opacity="1" d="M 57.5 455 L 60 456.5 L 58.5 456 L 57.5 455 Z " /><path fill="rgb(229,230,226)" stroke="rgb(229,230,226)" stroke-width="1" opacity="1" d="M 67.5 455 L 69 455.5 L 66.5 457 L 67.5 455 Z " /><path fill="rgb(229,230,226)" stroke="rgb(229,230,226)" stroke-width="1" opacity="1" d="M 77.5 455 L 79.5 458 L 77.5 455 Z " /><path fill="rgb(229,230,226)" stroke="rgb(229,230,226)" stroke-width="1" opacity="1" d="M 100.5 455 L 99.5 457 L 100.5 455 Z " /><path fill="rgb(229,230,226)" stroke="rgb(229,230,226)" stroke-width="1" opacity="1" d="M 55.5 458 L 56.5 460 L 55.5 458 Z " /><path fill="rgb(229,230,226)" stroke="rgb(229,230,226)" stroke-width="1" opacity="1" d="M 70.5 458 L 69.5 460 L 70.5 458 Z " /><path fill="rgb(229,230,226)" stroke="rgb(229,230,226)" stroke-width="1" opacity="1" d="M 74.5 458 Q 78.5 459.5 77 466.5 L 74 468.5 Q 77.5 467 76 460.5 L 74.5 458 Z " /><path fill="rgb(229,230,226)" stroke="rgb(229,230,226)" stroke-width="1" opacity="1" d="M 83.5 458 L 84 462.5 L 83 462.5 L 83.5 458 Z " /><path fill="rgb(229,230,226)" stroke="rgb(229,230,226)" stroke-width="1" opacity="1" d="M 96.5 458 L 97 462.5 L 96 462.5 L 96.5 458 Z " /><path fill="rgb(229,230,226)" stroke="rgb(229,230,226)" stroke-width="1" opacity="1" d="M 98.5 458 L 99 461.5 L 98 461.5 L 98.5 458 Z " /><path fill="rgb(229,230,226)" stroke="rgb(229,230,226)" stroke-width="1" opacity="1" d="M 103.5 458 L 104 460.5 L 102 459.5 L 103.5 458 Z " /><path fill="rgb(229,230,226)" stroke="rgb(229,230,226)" stroke-width="1" opacity="1" d="M 107.5 458 L 110 458.5 L 107.5 459 L 107.5 458 Z " /><path fill="rgb(229,230,226)" stroke="rgb(229,230,226)" stroke-width="1" opacity="1" d="M 49.5 460 L 50 462.5 L 49 462.5 L 49.5 460 Z " /><path fill="rgb(229,230,226)" stroke="rgb(229,230,226)" stroke-width="1" opacity="1" d="M 64.5 460 L 63.5 462 L 64.5 460 Z " /><path fill="rgb(229,230,226)" stroke="rgb(229,230,226)" stroke-width="1" opacity="1" d="M 113.5 460 L 114 466 L 117 466.5 L 113.5 469 L 114 467.5 L 113.5 460 Z " /><path fill="rgb(229,230,226)" stroke="rgb(229,230,226)" stroke-width="1" opacity="1" d="M 68.5 461 L 69 465.5 L 68 465.5 L 68.5 461 Z " /><path fill="rgb(229,230,226)" stroke="rgb(229,230,226)" stroke-width="1" opacity="1" d="M 57.5 462 L 58 464.5 L 57 464.5 L 57.5 462 Z " /><path fill="rgb(229,230,226)" stroke="rgb(229,230,226)" stroke-width="1" opacity="1" d="M 88.5 462 L 92 462.5 L 88.5 463 L 88.5 462 Z " /><path fill="rgb(229,230,226)" stroke="rgb(229,230,226)" stroke-width="1" opacity="1" d="M 107.5 462 L 111 464.5 L 108.5 463 L 107.5 462 Z " /><path fill="rgb(229,230,226)" stroke="rgb(229,230,226)" stroke-width="1" opacity="1" d="M 62.5 463 L 63.5 465 L 62.5 463 Z " /><path fill="rgb(229,230,226)" stroke="rgb(229,230,226)" stroke-width="1" opacity="1" d="M 49.5 464 L 50 466.5 L 49 466.5 L 49.5 464 Z " /><path fill="rgb(229,230,226)" stroke="rgb(229,230,226)" stroke-width="1" opacity="1" d="M 103.5 465 L 107 466 L 105.5 469 L 104.5 466 L 103.5 465 Z " /><path fill="rgb(229,230,226)" stroke="rgb(229,230,226)" stroke-width="1" opacity="1" d="M 88.5 466 L 91 466.5 L 88.5 467 L 88.5 466 Z " /><path fill="rgb(229,230,226)" stroke="rgb(229,230,226)" stroke-width="1" opacity="1" d="M 45.5 467 L 49 471.5 L 45 468.5 L 45.5 467 Z " /><path fill="rgb(229,230,226)" stroke="rgb(229,230,226)" stroke-width="1" opacity="1" d="M 56.5 467 L 55.5 469 L 56.5 467 Z " /><path fill="rgb(229,230,226)" stroke="rgb(229,230,226)" stroke-width="1" opacity="1" d="M 69.5 467 L 70.5 469 L 69.5 467 Z " /><path fill="rgb(229,230,226)" stroke="rgb(229,230,226)" stroke-width="1" opacity="1" d="M 99.5 468 L 101 468.5 L 99 469 L 98.5 472 L 98 469.5 L 99.5 468 Z " /><path fill="rgb(229,230,226)" stroke="rgb(229,230,226)" stroke-width="1" opacity="1" d="M 65.5 469 L 69 471.5 L 67.5 472 L 65.5 469 Z " /><path fill="rgb(229,230,226)" stroke="rgb(229,230,226)" stroke-width="1" opacity="1" d="M 79.5 469 L 77.5 472 L 79.5 469 Z " /><path fill="rgb(229,230,226)" stroke="rgb(229,230,226)" stroke-width="1" opacity="1" d="M 110.5 469 L 108.5 472 L 110.5 469 Z " /><path fill="rgb(229,230,226)" stroke="rgb(229,230,226)" stroke-width="1" opacity="1" d="M 117.5 469 L 118 471.5 L 114.5 473 L 113.5 471 L 117 472 L 117.5 469 Z " /><path fill="rgb(229,230,226)" stroke="rgb(229,230,226)" stroke-width="1" opacity="1" d="M 59.5 470 L 58.5 472 L 50.5 473 L 50.5 472 Q 57.2 473.2 59.5 470 Z " /><path fill="rgb(229,230,226)" stroke="rgb(229,230,226)" stroke-width="1" opacity="1" d="M 70.5 472 L 76 472.5 L 70.5 473 L 70.5 472 Z " /><path fill="rgb(229,230,226)" stroke="rgb(229,230,226)" stroke-width="1" opacity="1" d="M 84.5 472 L 88 472.5 L 84.5 473 L 84.5 472 Z " /><path fill="rgb(229,230,226)" stroke="rgb(229,230,226)" stroke-width="1" opacity="1" d="M 100.5 472 L 107 472.5 L 100.5 473 L 100.5 472 Z " /><path fill="rgb(229,230,226)" stroke="rgb(229,230,226)" stroke-width="1" opacity="1" d="M 186.5 490 Q 188 493.5 189.5 491 L 202.5 491 L 204 492.5 L 202.5 496 L 199 496.5 L 199 507.5 L 198 507.5 L 198 495.5 L 203 495 L 203 492 L 189.5 492 L 189 495 L 194 495 L 194 499.5 L 193 499.5 Q 194.8 494.3 189.5 496 L 188 492 L 177 492 L 177 508.5 L 176 508.5 L 176 492.5 L 177.5 491 L 185.5 491 L 186.5 490 Z " /><path fill="rgb(229,230,226)" stroke="rgb(229,230,226)" stroke-width="1" opacity="1" d="M 45 491 L 50 491.5 L 46 492 L 45.5 509 L 45 491 Z " /><path fill="rgb(229,230,226)" stroke="rgb(229,230,226)" stroke-width="1" opacity="1" d="M 56.5 491 L 60 491.5 L 56.5 492 L 56.5 491 Z " /><path fill="rgb(229,230,226)" stroke="rgb(229,230,226)" stroke-width="1" opacity="1" d="M 67.5 491 L 74 491.5 L 66.5 493 L 67.5 491 Z " /><path fill="rgb(229,230,226)" stroke="rgb(229,230,226)" stroke-width="1" opacity="1" d="M 89.5 491 Q 93.3 490.3 94 492.5 L 94 508.5 L 92.5 510 L 93 508.5 L 93 492.5 L 89.5 492 L 89.5 491 Z " /><path fill="rgb(229,230,226)" stroke="rgb(229,230,226)" stroke-width="1" opacity="1" d="M 96 491 Q 100.6 489.8 102 492.5 L 100.5 492 L 97 492.5 L 97 508.5 L 96 508.5 L 96 491 Z " /><path fill="rgb(229,230,226)" stroke="rgb(229,230,226)" stroke-width="1" opacity="1" d="M 107.5 491 L 111 491.5 L 107.5 492 L 107.5 491 Z " /><path fill="rgb(229,230,226)" stroke="rgb(229,230,226)" stroke-width="1" opacity="1" d="M 113.5 491 L 127 491.5 L 113 492 Q 111.2 496.9 117.5 495 L 117.5 496 Q 113 497 112 494.5 L 113.5 491 Z " /><path fill="rgb(229,230,226)" stroke="rgb(229,230,226)" stroke-width="1" opacity="1" d="M 129.5 491 L 140.5 491 L 141 494.5 Q 139.5 497.5 133.5 496 L 133.5 495 L 140 495 L 140 492 L 129.5 492 L 129.5 491 Z " /><path fill="rgb(229,230,226)" stroke="rgb(229,230,226)" stroke-width="1" opacity="1" d="M 143.5 491 L 152 491.5 L 143.5 492 L 143.5 491 Z " /><path fill="rgb(229,230,226)" stroke="rgb(229,230,226)" stroke-width="1" opacity="1" d="M 159.5 491 Q 163.3 490.3 164 492.5 L 162.5 492 Q 158.5 492.8 159.5 491 Z " /><path fill="rgb(229,230,226)" stroke="rgb(229,230,226)" stroke-width="1" opacity="1" d="M 169 491 L 173 491.5 L 170 492 L 169.5 503 L 169 491 Z " /><path fill="rgb(229,230,226)" stroke="rgb(229,230,226)" stroke-width="1" opacity="1" d="M 153.5 492 L 156 495.5 L 155 495.5 L 153.5 492 Z " /><path fill="rgb(229,230,226)" stroke="rgb(229,230,226)" stroke-width="1" opacity="1" d="M 50.5 493 L 51.5 495 L 50.5 493 Z " /><path fill="rgb(229,230,226)" stroke="rgb(229,230,226)" stroke-width="1" opacity="1" d="M 77.5 493 L 79 495.5 L 77 494.5 L 77.5 493 Z " /><path fill="rgb(229,230,226)" stroke="rgb(229,230,226)" stroke-width="1" opacity="1" d="M 68.5 495 L 68 496.5 L 67.5 498 L 67 496.5 L 68.5 495 Z " /><path fill="rgb(229,230,226)" stroke="rgb(229,230,226)" stroke-width="1" opacity="1" d="M 71.5 495 L 75 496.5 L 74.5 499 L 74 496 Q 70.7 496.8 71.5 495 Z " /><path fill="rgb(229,230,226)" stroke="rgb(229,230,226)" stroke-width="1" opacity="1" d="M 122.5 495 L 127 495.5 L 122.5 496 L 122.5 495 Z " /><path fill="rgb(229,230,226)" stroke="rgb(229,230,226)" stroke-width="1" opacity="1" d="M 150.5 495 L 152 498.5 Q 151.3 500.8 147.5 500 L 147.5 499 Q 152.3 500.7 151 496.5 L 150.5 495 Z " /><path fill="rgb(229,230,226)" stroke="rgb(229,230,226)" stroke-width="1" opacity="1" d="M 62.5 497 L 63 503.5 L 62 503.5 L 62.5 497 Z " /><path fill="rgb(229,230,226)" stroke="rgb(229,230,226)" stroke-width="1" opacity="1" d="M 181.5 497 L 187 498.5 L 181 499 L 181.5 497 Z " /><path fill="rgb(229,230,226)" stroke="rgb(229,230,226)" stroke-width="1" opacity="1" d="M 53.5 498 L 54.5 500 L 53.5 498 Z " /><path fill="rgb(229,230,226)" stroke="rgb(229,230,226)" stroke-width="1" opacity="1" d="M 79.5 498 L 80 502.5 L 79 502.5 L 79.5 498 Z " /><path fill="rgb(229,230,226)" stroke="rgb(229,230,226)" stroke-width="1" opacity="1" d="M 100.5 498 L 102 500.5 L 100 501 L 100.5 498 Z " /><path fill="rgb(229,230,226)" stroke="rgb(229,230,226)" stroke-width="1" opacity="1" d="M 104.5 498 L 105.5 500 L 104.5 498 Z " /><path fill="rgb(229,230,226)" stroke="rgb(229,230,226)" stroke-width="1" opacity="1" d="M 133.5 498 L 139 498.5 L 133.5 499 L 133.5 498 Z " /><path fill="rgb(229,230,226)" stroke="rgb(229,230,226)" stroke-width="1" opacity="1" d="M 155.5 498 L 156 499.5 L 153.5 503 L 153 501.5 L 155.5 498 Z " /><path fill="rgb(229,230,226)" stroke="rgb(229,230,226)" stroke-width="1" opacity="1" d="M 162.5 498 L 165 501.5 L 163 501.5 L 162.5 509 L 162.5 498 Z " /><path fill="rgb(229,230,226)" stroke="rgb(229,230,226)" stroke-width="1" opacity="1" d="M 50.5 500 L 52 502.5 L 50 501.5 L 50.5 500 Z " /><path fill="rgb(229,230,226)" stroke="rgb(229,230,226)" stroke-width="1" opacity="1" d="M 102.5 502 L 105 505.5 L 103 504.5 L 102.5 502 Z " /><path fill="rgb(229,230,226)" stroke="rgb(229,230,226)" stroke-width="1" opacity="1" d="M 147.5 502 L 150 503.5 L 148.5 503 L 147.5 502 Z " /><path fill="rgb(229,230,226)" stroke="rgb(229,230,226)" stroke-width="1" opacity="1" d="M 74.5 503 L 72.5 506 L 74.5 503 Z " /><path fill="rgb(229,230,226)" stroke="rgb(229,230,226)" stroke-width="1" opacity="1" d="M 52.5 504 L 55 507.5 L 53 506.5 L 52.5 504 Z " /><path fill="rgb(229,230,226)" stroke="rgb(229,230,226)" stroke-width="1" opacity="1" d="M 63.5 505 L 66.5 509 L 63.5 505 Z " /><path fill="rgb(229,230,226)" stroke="rgb(229,230,226)" stroke-width="1" opacity="1" d="M 78.5 505 L 75.5 509 L 78.5 505 Z " /><path fill="rgb(229,230,226)" stroke="rgb(229,230,226)" stroke-width="1" opacity="1" d="M 166.5 505 L 169 508.5 L 167 507.5 L 166.5 505 Z " /><path fill="rgb(229,230,226)" stroke="rgb(229,230,226)" stroke-width="1" opacity="1" d="M 193.5 505 L 194 507.5 L 193 507.5 L 193.5 505 Z " /><path fill="rgb(229,230,226)" stroke="rgb(229,230,226)" stroke-width="1" opacity="1" d="M 140.5 506 L 141 508.5 L 139 509.5 L 140.5 506 Z " /><path fill="rgb(229,230,226)" stroke="rgb(229,230,226)" stroke-width="1" opacity="1" d="M 155.5 506 L 156.5 508 L 155.5 506 Z " /><path fill="rgb(229,230,226)" stroke="rgb(229,230,226)" stroke-width="1" opacity="1" d="M 188.5 506 L 189 508.5 L 188 508.5 L 188.5 506 Z " /><path fill="rgb(229,230,226)" stroke="rgb(229,230,226)" stroke-width="1" opacity="1" d="M 151.5 507 L 152.5 509 L 151.5 507 Z " /><path fill="rgb(229,230,226)" stroke="rgb(229,230,226)" stroke-width="1" opacity="1" d="M 68.5 509 L 74 509.5 L 68.5 510 L 68.5 509 Z " /><path fill="rgb(229,230,226)" stroke="rgb(229,230,226)" stroke-width="1" opacity="1" d="M 89.5 523 L 90.5 527 L 94 526 L 93 531.5 L 93.5 533 L 92 533 L 92 528 L 90 528 L 90 533 L 88 533 L 88 524.5 L 89.5 523 Z " /><path fill="rgb(229,230,226)" stroke="rgb(229,230,226)" stroke-width="1" opacity="1" d="M 108.5 523 L 111.5 528 L 112.5 526 L 113 527.5 L 111 529.5 L 111.5 532 L 113 532.5 L 102.5 533 L 103.5 531 L 107 532 Q 109.1 526.8 104.5 528 Q 103.3 530.3 102 527.5 L 105.5 526 L 107 526.5 L 108.5 523 Z M 109 524 L 109 532 L 110 530 L 109 524 Z " /><path fill="rgb(229,230,226)" stroke="rgb(229,230,226)" stroke-width="1" opacity="1" d="M 185.5 523 L 186 524.5 Q 183.5 526 185 531.5 L 185.5 533 L 184 533 L 184 528 L 182.5 528 L 181 528.5 L 180 526.5 L 182.5 526 Q 184.8 526.8 184 524.5 L 185.5 523 Z " /><path fill="rgb(229,230,226)" stroke="rgb(229,230,226)" stroke-width="1" opacity="1" d="M 44 524 L 50 524.5 L 46.5 527 L 45.5 525 L 45 531.5 L 45.5 533 L 44 532.5 L 44 524 Z " /><path fill="rgb(229,230,226)" stroke="rgb(229,230,226)" stroke-width="1" opacity="1" d="M 51 524 L 53 524.5 L 53 531.5 L 53.5 533 Q 48.9 534.4 51 528.5 L 50 528.5 L 50 530 L 46 530 L 46 528 L 50 528 L 50 526.5 L 51 524 Z " /><path fill="rgb(229,230,226)" stroke="rgb(229,230,226)" stroke-width="1" opacity="1" d="M 237.5 524 L 240 524.5 L 239 526.5 Q 240.8 529.8 242.5 526 L 246.5 528 L 250.5 526 L 254 527.5 Q 255.3 533.6 252.5 533 L 253 531.5 L 252.5 527 L 251.5 529 L 250 528.5 Q 251.9 533.9 248.5 533 Q 245.3 531.8 246 528 L 241 528 L 241 531.5 L 244.5 531 L 246 532.5 L 241.5 533 L 239.5 533 L 233 533 Q 235.4 525.9 229 528 Q 226.9 533.2 231.5 532 L 231.5 533 Q 226.1 534.9 227 531.5 L 228 528.5 Q 225.7 527.3 228.5 526 L 233 527 Q 231.9 524.3 234.5 525 L 237 526 L 237.5 524 Z M 239 527 L 238 532 L 239 532 L 239 527 Z M 249 527 L 247 531 L 249 532 L 249 527 Z M 235 528 Q 233 533 237 532 Q 239 527 235 528 Z " /><path fill="rgb(229,230,226)" stroke="rgb(229,230,226)" stroke-width="1" opacity="1" d="M 159 525 L 165 527.5 L 165.5 529 L 167.5 526 L 169.5 529 L 171.5 526 L 173.5 527 L 176.5 526 Q 179.5 526.5 179 530.5 L 178 533 Q 173.4 534.3 172 531.5 L 171.5 530 L 169.5 533 Q 167.3 533.8 168 531.5 L 167 531.5 L 166.5 533 L 164 532.5 L 165 529.5 L 163 529.5 Q 163.7 526.9 161 528 L 161 532 L 162.5 532 L 162.5 533 Q 156.8 534.8 159 528.5 L 158 528.5 L 157 530.5 L 158 533 Q 153.4 534.3 152 531.5 L 152.5 527 L 154 527.5 Q 153.2 524.9 156.5 526 L 159 527 L 159 525 Z M 174 528 L 173 532 L 176 532 L 178 531 L 178 529 L 176 528 L 174 528 Z M 154 531 L 154 532 L 157 532 L 154 531 Z " /><path fill="rgb(229,230,226)" stroke="rgb(229,230,226)" stroke-width="1" opacity="1" d="M 56.5 526 L 60 527.5 L 57 531.5 L 58.5 532 L 60 531.5 Q 60.9 534.9 55.5 533 L 57 530.5 L 56 529.5 L 55 527.5 L 56.5 526 Z " /><path fill="rgb(229,230,226)" stroke="rgb(229,230,226)" stroke-width="1" opacity="1" d="M 62.5 526 L 66 527.5 L 65 531.5 L 65.5 533 L 61 532.5 L 62 530.5 L 61.5 529 L 64 528.5 L 61 527.5 L 62.5 526 Z " /><path fill="rgb(229,230,226)" stroke="rgb(229,230,226)" stroke-width="1" opacity="1" d="M 68.5 526 Q 73.3 524.7 72 528 L 70 528.5 L 72 530.5 L 71.5 533 L 67 532.5 L 70 531.5 L 67 530 L 68.5 526 Z " /><path fill="rgb(229,230,226)" stroke="rgb(229,230,226)" stroke-width="1" opacity="1" d="M 75 526 Q 78.3 524.7 77 529.5 L 78 529.5 L 78.5 527 L 79 529.5 L 75 531.5 L 79 532.5 L 73 533 L 74 529.5 L 73 527.5 L 75 527.5 L 75 526 Z " /><path fill="rgb(229,230,226)" stroke="rgb(229,230,226)" stroke-width="1" opacity="1" d="M 84.5 526 Q 88.3 525 87 528 Q 82.9 526.3 84 530.5 L 87 532.5 L 83.5 533 L 83.5 531 Q 80.9 531.8 82 528.5 L 84.5 526 Z " /><path fill="rgb(229,230,226)" stroke="rgb(229,230,226)" stroke-width="1" opacity="1" d="M 97.5 526 L 101 527.5 L 102 531 L 97.5 530 L 96.5 532 L 101 532.5 L 96.5 533 Q 94.3 532.3 95 528.5 L 97.5 526 Z " /><path fill="rgb(229,230,226)" stroke="rgb(229,230,226)" stroke-width="1" opacity="1" d="M 117.5 526 L 117.5 528 L 119.5 529 L 121.5 526 L 124.5 528 L 125 526 L 129 527.5 L 128 530.5 Q 130.3 531.8 127.5 533 Q 122.1 534.9 123 531.5 L 124 529.5 L 121 527.5 L 122 529.5 L 118.5 536 Q 116.3 536.8 117 534.5 L 119 530.5 L 117 530 L 116 527.5 L 117.5 526 Z M 125 528 L 125 532 L 127 531 Q 128 527 125 528 Z " /><path fill="rgb(229,230,226)" stroke="rgb(229,230,226)" stroke-width="1" opacity="1" d="M 130 526 L 132 526 L 132 532 L 134.5 532 L 134 530.5 Q 132.3 524.6 136 526 L 136 532.5 L 134.5 533 L 132.5 533 L 130 533 L 130 526 Z " /><path fill="rgb(229,230,226)" stroke="rgb(229,230,226)" stroke-width="1" opacity="1" d="M 137 526 Q 140.8 525 142 527.5 L 138 530.5 L 139 533 L 137 532.5 L 137 526 Z " /><path fill="rgb(229,230,226)" stroke="rgb(229,230,226)" stroke-width="1" opacity="1" d="M 145 526 Q 149.6 524.8 151 527.5 Q 153 534.4 149 533 L 149 528 L 147 528 L 147 533 L 145 533 L 145 526 Z " /><path fill="rgb(229,230,226)" stroke="rgb(229,230,226)" stroke-width="1" opacity="1" d="M 188.5 526 Q 190.8 525.3 190 527.5 Q 186.5 529 189 530.5 L 190 532.5 L 188.5 533 L 186 530.5 L 186 528.5 L 188.5 526 Z " /><path fill="rgb(229,230,226)" stroke="rgb(229,230,226)" stroke-width="1" opacity="1" d="M 196 526 L 200.5 528 L 201 526 L 205 527.5 L 204 530.5 L 205 530.5 L 206 526 Q 210.6 524.8 212 527.5 Q 210.8 530.3 209.5 528 L 207.5 527 L 207 531.5 L 207.5 533 Q 205.3 533.8 206 531.5 L 205 531.5 Q 205.9 534.9 200.5 533 L 198.5 533 L 194 532.5 L 195 528.5 L 194 528.5 L 193.5 531 L 193 528.5 L 196 527.5 L 196 526 Z M 196 528 Q 194 534 199 532 Q 201 526 196 528 Z M 201 528 L 201 531 L 203 532 Q 204 527 201 528 Z " /><path fill="rgb(229,230,226)" stroke="rgb(229,230,226)" stroke-width="1" opacity="1" d="M 213 526 L 215.5 527 L 218.5 526 L 218 527.5 L 218.5 532 L 219 528 L 224.5 526 Q 227.2 527.3 225 528.5 Q 225.8 531.1 222.5 530 L 223.5 532 L 226 532.5 L 221.5 533 L 221.5 531 Q 218.9 530.3 220 533 L 217 533 L 216.5 528 L 215 528.5 L 214.5 527 L 214 531.5 L 214.5 533 L 213 532.5 L 213 526 Z " /><path fill="rgb(229,230,226)" stroke="rgb(229,230,226)" stroke-width="1" opacity="1" d="M 255 531 Q 258 530 257 533 Q 254 534 255 531 Z " /><path fill="rgb(229,230,226)" stroke="rgb(229,230,226)" stroke-width="1" opacity="1" d="M 68 569 L 70 569.5 L 68 570.5 L 68 569 Z " /><path fill="rgb(229,230,226)" stroke="rgb(229,230,226)" stroke-width="1" opacity="1" d="M 98.5 569 Q 100.8 568.3 100 570.5 L 98.5 569 Z " /><path fill="rgb(229,230,226)" stroke="rgb(229,230,226)" stroke-width="1" opacity="1" d="M 127.5 569 L 130 569.5 L 127.5 570 L 127.5 569 Z " /><path fill="rgb(229,230,226)" stroke="rgb(229,230,226)" stroke-width="1" opacity="1" d="M 187 569 Q 190 568 189 571 Q 186 572 187 569 Z " /><path fill="rgb(229,230,226)" stroke="rgb(229,230,226)" stroke-width="1" opacity="1" d="M 246.5 569 L 249 569.5 L 246.5 570 L 246.5 569 Z " /><path fill="rgb(229,230,226)" stroke="rgb(229,230,226)" stroke-width="1" opacity="1" d="M 276 569 L 278 569.5 L 276 570.5 L 276 569 Z " /><path fill="rgb(229,230,226)" stroke="rgb(229,230,226)" stroke-width="1" opacity="1" d="M 306.5 569 Q 308.8 568.3 308 570.5 L 306.5 569 Z " /><path fill="rgb(229,230,226)" stroke="rgb(229,230,226)" stroke-width="1" opacity="1" d="M 357.5 572 L 358 581.5 L 357 581.5 L 357.5 572 Z " /><path fill="rgb(229,230,226)" stroke="rgb(229,230,226)" stroke-width="1" opacity="1" d="M 169 582 L 175.5 582 L 176 584 L 169.5 584 L 169 582 Z " /><path fill="rgb(229,230,226)" stroke="rgb(229,230,226)" stroke-width="1" opacity="1" d="M 192.5 583 L 194.5 584 L 197 583 Q 195.9 586.3 200 585 Q 198.8 582 202.5 583 Q 205.3 584.3 203 585.5 Q 202.3 588.1 205 587 Q 203.5 583.3 206.5 584 L 209 585.5 L 205 587.5 L 204 591.5 L 206.5 596 L 213 596 L 213 591 L 209 591.5 L 211 592.5 L 209 593.5 L 211 594.5 L 208 595 Q 209 592 206 593 L 206 588.5 Q 207.6 585.6 213 586.5 L 210 585.5 L 216.5 584 L 218.5 585 L 220 584.5 Q 220.8 586.8 218.5 586 L 215 587.5 L 217 588.5 L 214 595.5 L 216 596.5 L 211 597.5 L 212 601 Q 206.4 602.9 208 598 L 210 597.5 L 204.5 596 L 202.5 597 L 201 596.5 Q 200.3 598.8 202.5 598 L 202.5 599 Q 199.9 598.3 201 601 L 198.5 601 Q 197.7 597.3 192.5 598 L 191 598.5 L 190 591.5 L 191 589 L 188 590.5 L 188.5 592 Q 186.3 591.3 187 593.5 L 186 593.5 L 189 586 Q 186 584.8 187 588.5 Q 185.5 591.5 184 588.5 L 182.5 586 L 179.5 587 L 173 586 L 173.5 596 L 174 592 Q 177.8 590.5 177 593.5 Q 179 597.2 181 595.5 Q 181.8 598.1 178.5 597 Q 177.3 594.8 176 597.5 L 176 601 L 167 601 L 166 598.5 L 169 597.5 L 164 594.5 L 164 591 Q 159.9 592.7 161 588.5 L 162 587.5 L 160.5 585 L 162 585.5 L 162.5 584 L 163.5 585 L 176.5 585 L 177.5 584 L 180 585.5 L 180.5 584 L 182.5 585 L 186.5 584 L 189.5 585 L 192.5 583 Z M 164 586 Q 163 588 167 587 L 168 596 L 168 587 L 172 587 L 164 586 Z M 199 586 L 196 590 L 196 592 Q 193 591 194 594 L 195 596 Q 197 597 196 595 Q 197 592 201 593 L 203 596 L 204 593 L 203 593 L 203 591 Q 200 592 201 589 L 204 589 L 203 588 L 200 588 Q 201 585 199 586 Z M 192 588 L 192 594 L 193 594 Q 192 589 195 590 Q 196 587 192 588 Z M 169 589 L 170 597 L 170 594 L 170 592 L 171 590 L 169 589 Z M 208 589 L 208 590 L 214 590 L 208 589 Z " /><path fill="rgb(229,230,226)" stroke="rgb(229,230,226)" stroke-width="1" opacity="1" d="M 221.5 584 L 224.5 585 L 227 585.5 L 225 586 L 225 595.5 L 228 596 L 228 586.5 L 229.5 585 L 231.5 584 Q 232.8 586.3 237.5 585 L 239 586.5 L 239 595.5 L 237.5 596 L 238 597.5 Q 238.8 599.8 236.5 599 Q 232.5 598.5 233 593.5 L 235 594.5 Q 234.3 597.1 237 596 L 236.5 586 L 235.5 593 L 230.5 586 L 229 586.5 L 229 596 L 231 596.5 L 229.5 597 L 228 596.5 L 230 599.5 Q 228.8 602.3 223.5 601 L 220 598.5 L 224 597.5 L 219.5 595 L 217.5 596 Q 214.5 594.5 217.5 593 Q 221.9 591.5 221 594.5 L 223 595.5 L 222 592.5 L 223 590.5 L 221 590.5 L 222 586.5 L 221.5 584 Z " /><path fill="rgb(229,230,226)" stroke="rgb(229,230,226)" stroke-width="1" opacity="1" d="M 174 587 Q 179.2 584.9 178 589.5 L 175.5 591 L 174 587 Z " /><path fill="rgb(229,230,226)" stroke="rgb(229,230,226)" stroke-width="1" opacity="1" d="M 181.5 587 Q 185.3 589.5 184 596 L 186.5 597 Q 187.8 594.8 189 597.5 Q 189.9 600.9 184.5 599 L 183 595.5 Q 184.1 592.2 181.5 593 L 180 592.5 L 179.5 594 L 178 591.5 L 181 589.5 Q 178.8 588.3 181.5 587 Z " /><path fill="rgb(229,230,226)" stroke="rgb(229,230,226)" stroke-width="1" opacity="1" d="M 198.5 588 L 200 591.5 L 197 591.5 L 198.5 588 Z " /><path fill="rgb(229,230,226)" stroke="rgb(229,230,226)" stroke-width="1" opacity="1" d="M 218.5 588 L 220 591.5 L 217 591.5 L 218.5 588 Z " /><path fill="rgb(229,230,226)" stroke="rgb(229,230,226)" stroke-width="1" opacity="1" d="M 232.5 591 L 231.5 593 L 232.5 591 Z " /><path fill="rgb(229,230,226)" stroke="rgb(229,230,226)" stroke-width="1" opacity="1" d="M 213 598 Q 217.5 596.5 216 601 Q 211.5 602.5 213 598 Z " /><path fill="rgb(253,253,252)" stroke="rgb(253,253,252)" stroke-width="1" opacity="1" d="M 253.5 72 L 252.5 74 L 253.5 72 Z " /><path fill="rgb(253,253,252)" stroke="rgb(253,253,252)" stroke-width="1" opacity="1" d="M 160.5 132 L 161 135.5 L 160 135.5 L 160.5 132 Z " /><path fill="rgb(253,253,252)" stroke="rgb(253,253,252)" stroke-width="1" opacity="1" d="M 295.5 225 L 296 228.5 L 295 228.5 L 295.5 225 Z " /><path fill="rgb(253,253,252)" stroke="rgb(253,253,252)" stroke-width="1" opacity="1" d="M 189 351 L 197.5 351 L 199 352.5 L 189 353 L 189 351 Z " /><path fill="rgb(253,253,252)" stroke="rgb(253,253,252)" stroke-width="1" opacity="1" d="M 109.5 453 L 111 455.5 L 110 455.5 L 109.5 453 Z " /><path fill="rgb(253,253,252)" stroke="rgb(253,253,252)" stroke-width="1" opacity="1" d="M 98.5 455 L 97.5 457 L 98.5 455 Z " /><path fill="rgb(253,253,252)" stroke="rgb(253,253,252)" stroke-width="1" opacity="1" d="M 110 459 Q 112.7 457.9 112 460.5 L 113 463 L 110 462.5 L 112 461.5 L 110 461 L 110 459 Z " /><path fill="rgb(253,253,252)" stroke="rgb(253,253,252)" stroke-width="1" opacity="1" d="M 93.5 467 L 97 468 Q 98.7 473.2 95 472 L 93.5 467 Z " /><path fill="rgb(253,253,252)" stroke="rgb(253,253,252)" stroke-width="1" opacity="1" d="M 175.5 491 L 176 498.5 L 175 498.5 L 175.5 491 Z " /><path fill="rgb(253,253,252)" stroke="rgb(253,253,252)" stroke-width="1" opacity="1" d="M 62.5 492 L 62 493.5 L 61.5 497 L 61 493.5 L 62.5 492 Z " /><path fill="rgb(253,253,252)" stroke="rgb(253,253,252)" stroke-width="1" opacity="1" d="M 156.5 492 Q 159.1 491.2 158 494.5 L 157 494.5 L 156.5 492 Z " /><path fill="rgb(253,253,252)" stroke="rgb(253,253,252)" stroke-width="1" opacity="1" d="M 55.5 497 L 56 499.5 L 55 499.5 L 55.5 497 Z " /><path fill="rgb(253,253,252)" stroke="rgb(253,253,252)" stroke-width="1" opacity="1" d="M 112.5 497 Q 115.1 496.3 114 499 L 111 498.5 L 112.5 497 Z " /><path fill="rgb(253,253,252)" stroke="rgb(253,253,252)" stroke-width="1" opacity="1" d="M 125.5 498 L 127 498 L 127 502 L 124 500.5 L 125.5 498 Z " /><path fill="rgb(253,253,252)" stroke="rgb(253,253,252)" stroke-width="1" opacity="1" d="M 175.5 503 L 176 506.5 L 175 506.5 L 175.5 503 Z " /><path fill="rgb(253,253,252)" stroke="rgb(253,253,252)" stroke-width="1" opacity="1" d="M 117.5 506 L 119 511.5 L 111 512 Q 109.5 508.3 112.5 509 L 117 510 L 117.5 506 Z " /><path fill="rgb(253,253,252)" stroke="rgb(253,253,252)" stroke-width="1" opacity="1" d="M 126.5 524 L 130 526.5 L 128.5 527 Q 127 523.5 125.5 526 L 124 525.5 L 126.5 524 Z " /><path fill="rgb(253,253,252)" stroke="rgb(253,253,252)" stroke-width="1" opacity="1" d="M 95.5 525 L 94.5 527 L 95.5 525 Z " /><path fill="rgb(253,253,252)" stroke="rgb(253,253,252)" stroke-width="1" opacity="1" d="M 87.5 528 L 88 531.5 L 87 531.5 L 87.5 528 Z " /><path fill="rgb(253,253,252)" stroke="rgb(253,253,252)" stroke-width="1" opacity="1" d="M 50.5 529 L 51 530.5 L 49 531.5 L 50.5 529 Z " /><path fill="rgb(253,253,252)" stroke="rgb(253,253,252)" stroke-width="1" opacity="1" d="M 147.5 529 L 148 532.5 L 147 532.5 L 147.5 529 Z " /><path fill="rgb(253,253,252)" stroke="rgb(253,253,252)" stroke-width="1" opacity="1" d="M 231.5 529 L 232.5 531 Q 229.7 531.7 231.5 529 Z " /><path fill="rgb(253,253,252)" stroke="rgb(253,253,252)" stroke-width="1" opacity="1" d="M 177.5 534 L 180 534.5 L 177.5 535 L 177.5 534 Z " /><path fill="rgb(254,254,254)" stroke="rgb(254,254,254)" stroke-width="1" opacity="1" d="M 55.5 492 L 56 496.5 L 55 496.5 L 55.5 492 Z " /><path fill="rgb(254,254,254)" stroke="rgb(254,254,254)" stroke-width="1" opacity="1" d="M 117.5 498 L 118 505.5 L 117 505.5 L 117.5 498 Z " /><path fill="rgb(254,254,254)" stroke="rgb(254,254,254)" stroke-width="1" opacity="1" d="M 49.5 502 L 50 506.5 L 49 506.5 L 49.5 502 Z " /><path fill="rgb(254,254,254)" stroke="rgb(254,254,254)" stroke-width="1" opacity="1" d="M 111.5 504 L 112 508.5 L 111 508.5 L 111.5 504 Z " /><path fill="rgb(255,255,255)" stroke="rgb(255,255,255)" stroke-width="1" opacity="1" d="M 0 0 L 819 0 L 819 601 L 399 601 L 399 6 L 403 5.5 L 0 5 L 0 0 Z " /><path fill="rgb(255,255,255)" stroke="rgb(255,255,255)" stroke-width="1" opacity="1" d="M 0 6 L 3 6.5 L 3 601 L 0 600.5 L 0 6 Z " /><path fill="rgb(80,69,59)" stroke="rgb(80,69,59)" stroke-width="1" opacity="1" d="M 239.5 67 L 245.5 68 L 252 74.5 L 257 82.5 L 259 104.5 L 265 120.5 L 262 131.5 L 267 145.5 L 268 155 L 271 156.5 L 271 162.5 L 265 173.5 L 265 176 Q 272.6 178.4 277 185.5 L 287 207.5 L 290 216.5 L 291 227.5 L 288 243.5 L 286 246.5 L 286 266.5 L 276 289.5 L 274 299.5 L 274 307.5 Q 276.9 320.6 285.5 328 L 293 333.5 L 294 337.5 L 291.5 341 L 277.5 341 L 275.5 340 Q 274 342.5 268.5 341 L 264 338.5 L 258.5 329 L 257 329.5 L 255 321.5 L 257 310.5 L 255 303.5 Q 257.9 299.9 257 292.5 L 256 291.5 L 256 277.5 L 255 276.5 Q 257.3 275.3 254.5 274 L 254 277.5 Q 256.5 279 255 284.5 L 253 292.5 L 248 299 Q 240.2 302.3 235 309.5 Q 234.1 312.5 238.5 311 L 243 315.5 L 243 319.5 L 242 322.5 L 244.5 321 L 246 322.5 Q 247.7 327.3 243.5 326 L 240.5 328 L 209.5 328 L 206 327 L 204.5 324 L 162 324.5 L 166.5 332 L 172.5 334 L 173.5 333 L 193.5 333 L 193.5 334 L 183.5 336 L 173 336 L 173 343 L 169 343 L 168.5 340 L 165.5 345 L 165 342 Q 161.9 341.3 162.5 344 L 152.5 344 L 150.5 344 Q 144.4 344.8 142 343 Q 139 339.5 140 332 L 137.5 333 L 125.5 333 Q 124.2 330.8 119.5 332 L 115 327.5 L 116 318.5 Q 113 317.3 114 313 Q 111 314.3 112 310.5 Q 114.8 309.7 114 305.5 L 110 298.5 L 107 278.5 Q 110.5 266.5 118 258.5 L 141.5 235 L 146 231.5 L 150 216.5 L 156 202.5 L 160 198.5 L 169 180.5 L 174.5 175 L 177 173.5 Q 180.3 169.8 179 161.5 Q 176.3 159.2 177 153.5 L 168.5 140 L 164 137.5 L 161 128.5 L 161 120.5 L 156 109.5 Q 157.3 102.7 155 99.5 L 157 88.5 L 164.5 80 L 167.5 79 L 174.5 81 L 184 89.5 L 194.5 108 L 197 109.5 Q 196.2 112.1 199.5 111 L 200.5 110 L 213.5 109 L 216.5 110 L 230.5 106 L 232 104.5 L 234 96.5 L 234 78.5 L 236 70.5 L 239.5 67 Z M 242 93 L 243 97 L 244 95 Q 245 92 242 93 Z M 249 129 L 247 131 Q 248 137 253 139 L 255 139 L 253 137 Q 249 135 249 129 Z M 198 138 Q 195 144 200 146 L 203 146 L 202 145 Q 197 144 198 138 Z M 248 153 L 247 155 L 249 156 L 248 153 Z M 268 164 L 266 166 Q 263 165 264 168 L 268 166 L 268 164 Z M 254 168 L 252 173 L 254 172 L 254 176 L 259 177 L 259 176 L 257 174 L 254 168 Z M 263 169 Q 258 171 262 173 L 264 172 L 264 170 L 263 169 Z M 260 172 Q 258 175 261 174 L 260 172 Z M 188 176 L 186 178 L 187 179 L 190 177 L 188 176 Z M 232 176 L 230 179 L 232 178 L 232 176 Z M 263 178 L 260 182 L 263 180 L 263 178 Z M 188 179 L 188 185 L 189 185 L 188 179 Z M 242 180 L 239 183 L 240 185 L 243 181 L 242 180 Z M 251 183 L 249 186 L 245 187 L 246 189 L 247 189 Q 246 186 250 187 L 251 188 L 254 185 Q 255 181 251 183 Z M 244 184 L 239 187 L 241 189 L 244 188 L 244 184 Z M 197 189 L 199 192 L 201 192 L 197 189 Z M 248 189 L 249 191 Q 250 188 248 189 Z M 249 193 L 249 196 L 248 198 Q 244 197 245 200 L 238 205 L 231 204 L 229 202 Q 220 203 216 200 L 210 201 L 212 201 L 213 205 L 213 207 L 212 211 Q 211 213 214 212 L 215 216 Q 214 218 217 217 L 218 223 L 214 226 L 212 226 L 212 230 L 210 230 L 206 233 L 204 236 L 208 237 Q 210 241 206 240 L 206 241 Q 208 240 207 243 L 205 244 L 192 262 L 200 262 L 208 268 L 210 268 L 212 273 L 217 276 L 219 276 L 222 271 L 230 266 L 234 269 L 237 268 L 239 268 L 243 270 L 250 266 L 246 258 L 249 251 L 245 243 Q 246 240 250 240 L 252 236 L 250 235 L 251 230 L 253 230 L 247 226 L 248 223 Q 249 218 247 219 L 243 211 L 246 206 L 246 202 L 249 200 Q 252 198 252 194 L 251 194 L 249 193 Z M 196 239 L 196 240 L 200 241 L 201 241 Q 200 238 196 239 Z M 202 239 L 202 240 L 205 240 L 202 239 Z M 164 288 L 163 293 L 165 294 L 164 288 Z M 168 295 L 170 300 L 172 299 L 174 300 L 174 298 L 170 297 Q 171 294 168 295 Z M 202 299 L 200 303 Q 199 305 202 304 L 205 300 L 202 299 Z M 173 303 L 170 306 L 165 306 Q 165 303 162 304 L 162 315 L 164 315 L 166 315 Q 170 313 169 317 L 169 318 L 173 315 L 172 312 L 173 309 L 176 311 L 177 307 L 174 305 Q 175 302 173 303 Z M 188 309 L 185 310 L 186 312 L 191 310 L 188 309 Z M 197 311 L 189 313 L 186 316 L 190 317 Q 197 318 200 315 L 199 313 Q 200 310 197 311 Z M 137 313 L 136 319 L 141 322 L 142 317 L 137 313 Z M 204 318 L 197 320 L 188 320 L 187 322 L 197 322 L 198 321 L 200 322 Q 206 323 208 321 Q 208 318 204 318 Z M 239 318 L 238 323 L 239 323 L 239 318 Z M 174 319 L 172 321 L 164 321 L 163 320 L 162 323 L 179 322 Q 175 322 174 319 Z M 132 320 L 130 322 L 131 331 L 134 321 L 132 320 Z " /><path fill="rgb(80,69,59)" stroke="rgb(80,69,59)" stroke-width="1" opacity="1" d="M 72.5 454 L 76.5 455 L 80 458.5 L 81 465.5 L 76.5 472 Q 67.5 473.5 65 468.5 L 64 461.5 L 67.5 456 L 72.5 454 Z M 71 458 L 68 462 L 69 468 Q 70 470 75 469 Q 79 468 77 461 Q 76 457 71 458 Z " /><path fill="rgb(80,69,59)" stroke="rgb(80,69,59)" stroke-width="1" opacity="1" d="M 104.5 454 L 110 456.5 Q 110.5 459.5 103.5 458 Q 100.5 459.5 103.5 461 L 111 465.5 Q 111.8 471.3 107.5 472 L 99 472 L 99 469 Q 105.1 470.8 107 467.5 Q 107.8 465.3 105.5 466 L 99 462.5 Q 97.8 456.3 101.5 455 L 104.5 454 Z " /><path fill="rgb(80,69,59)" stroke="rgb(80,69,59)" stroke-width="1" opacity="1" d="M 115.5 454 L 117 455.5 L 117 466 Q 111.8 467.8 114 460.5 L 113 455 L 115.5 454 Z " /><path fill="rgb(80,69,59)" stroke="rgb(80,69,59)" stroke-width="1" opacity="1" d="M 49.5 455 Q 58.5 453.5 61 458.5 L 62 464.5 L 58.5 471 L 49.5 472 Q 43.6 469.9 45 460.5 L 49.5 455 Z M 52 458 Q 48 460 49 467 Q 50 470 56 469 L 58 465 L 57 460 Q 56 457 52 458 Z " /><path fill="rgb(80,69,59)" stroke="rgb(80,69,59)" stroke-width="1" opacity="1" d="M 84 455 Q 92.7 453.1 96 457.5 Q 97.5 463.5 94.5 465 L 88 466 L 88 472 L 84 472 L 84 455 Z M 88 458 L 88 463 L 92 463 L 92 462 L 92 460 L 92 458 L 88 458 Z " /><path fill="rgb(80,69,59)" stroke="rgb(80,69,59)" stroke-width="1" opacity="1" d="M 114.5 468 Q 119.1 466.8 117 472 L 113 470.5 L 114.5 468 Z " /><path fill="rgb(80,69,59)" stroke="rgb(80,69,59)" stroke-width="1" opacity="1" d="M 46 492 L 50 492 L 50 493.5 L 55.5 502 L 56 492 L 60 492.5 L 60 509 L 55 509 L 55 507.5 L 49.5 499 L 49 509 L 46 508.5 L 46 492 Z " /><path fill="rgb(80,69,59)" stroke="rgb(80,69,59)" stroke-width="1" opacity="1" d="M 67.5 492 Q 74.3 491.1 77 493 L 79 496.5 L 79 504.5 Q 77.3 510.8 67.5 509 Q 61 507 63 496.5 L 65.5 493 L 67.5 492 Z M 69 495 L 67 497 L 67 505 L 73 506 Q 77 504 75 497 Q 74 494 69 495 Z " /><path fill="rgb(80,69,59)" stroke="rgb(80,69,59)" stroke-width="1" opacity="1" d="M 89 492 L 93 492.5 L 93 509 L 89 508.5 L 89 492 Z " /><path fill="rgb(80,69,59)" stroke="rgb(80,69,59)" stroke-width="1" opacity="1" d="M 97 492 Q 100.8 491 102 493.5 L 106.5 502 L 107 492 L 111 492.5 L 111 509 L 106 509 L 106 507.5 L 100.5 498 L 100 509 L 97 508.5 L 97 492 Z " /><path fill="rgb(80,69,59)" stroke="rgb(80,69,59)" stroke-width="1" opacity="1" d="M 113 492 L 126.5 492 L 127 495 L 122 495 L 122 508.5 L 118 509 L 118 495.5 L 113 495 L 113 492 Z " /><path fill="rgb(80,69,59)" stroke="rgb(80,69,59)" stroke-width="1" opacity="1" d="M 129 492 L 139.5 492 L 140 495 L 133 495 L 133 499 L 139 499 L 139 502 L 133 502 L 133 506 L 140 506 L 140 509 L 129 509 L 129 492 Z " /><path fill="rgb(80,69,59)" stroke="rgb(80,69,59)" stroke-width="1" opacity="1" d="M 143 492 L 152.5 492 L 155 494.5 L 156 497.5 L 153 502.5 L 157 508.5 L 153.5 509 L 148.5 502 L 147 502.5 L 147 509 L 143 509 L 143 492 Z M 147 495 L 147 500 L 151 500 L 152 497 Q 151 494 147 495 Z " /><path fill="rgb(80,69,59)" stroke="rgb(80,69,59)" stroke-width="1" opacity="1" d="M 159 492 Q 162.8 491 164 493.5 L 169.5 503 L 170 492 L 173 492.5 L 173 509 Q 169.2 510 168 507.5 L 162.5 498 L 162 509 L 159 508.5 L 159 492 Z " /><path fill="rgb(80,69,59)" stroke="rgb(80,69,59)" stroke-width="1" opacity="1" d="M 177 492 L 187.5 492 L 188 495 L 181 495 L 181 499 L 186.5 499 L 187 500.5 Q 185.6 503.3 181 502 L 181 506 L 188 506 L 188 509 L 177 509 L 177 492 Z " /><path fill="rgb(80,69,59)" stroke="rgb(80,69,59)" stroke-width="1" opacity="1" d="M 189 492 L 202.5 492 L 203 495 L 198 495 L 198 508.5 L 194 509 L 194 495.5 L 189 495 L 189 492 Z " /><path fill="rgb(80,69,59)" stroke="rgb(80,69,59)" stroke-width="1" opacity="1" d="M 108.5 524 L 109.5 529 L 112 527.5 L 110 529.5 L 111.5 532 L 109 530.5 L 108.5 532 L 108.5 524 Z " /><path fill="rgb(80,69,59)" stroke="rgb(80,69,59)" stroke-width="1" opacity="1" d="M 45.5 525 L 46 531.5 L 45 531.5 L 45.5 525 Z " /><path fill="rgb(80,69,59)" stroke="rgb(80,69,59)" stroke-width="1" opacity="1" d="M 49.5 525 L 50 527.5 L 49 527.5 L 49.5 525 Z " /><path fill="rgb(80,69,59)" stroke="rgb(80,69,59)" stroke-width="1" opacity="1" d="M 185.5 525 L 186.5 529 L 189 527.5 L 185.5 532 L 185.5 525 Z " /><path fill="rgb(80,69,59)" stroke="rgb(80,69,59)" stroke-width="1" opacity="1" d="M 77.5 527 L 78 529.5 L 77 529.5 L 77.5 527 Z " /><path fill="rgb(80,69,59)" stroke="rgb(80,69,59)" stroke-width="1" opacity="1" d="M 103.5 527 L 103 528.5 L 102.5 532 L 102 528.5 L 103.5 527 Z " /><path fill="rgb(80,69,59)" stroke="rgb(80,69,59)" stroke-width="1" opacity="1" d="M 180.5 527 L 181 531.5 L 180 531.5 L 180.5 527 Z " /><path fill="rgb(80,69,59)" stroke="rgb(80,69,59)" stroke-width="1" opacity="1" d="M 195.5 527 L 195 528.5 L 194.5 532 L 194 528.5 L 195.5 527 Z " /><path fill="rgb(80,69,59)" stroke="rgb(80,69,59)" stroke-width="1" opacity="1" d="M 203.5 527 L 205 530.5 L 204 530.5 L 203.5 527 Z " /><path fill="rgb(80,69,59)" stroke="rgb(80,69,59)" stroke-width="1" opacity="1" d="M 207.5 527 L 208 531.5 L 207 531.5 L 207.5 527 Z " /><path fill="rgb(80,69,59)" stroke="rgb(80,69,59)" stroke-width="1" opacity="1" d="M 214.5 527 L 215 531.5 L 214 531.5 L 214.5 527 Z " /><path fill="rgb(80,69,59)" stroke="rgb(80,69,59)" stroke-width="1" opacity="1" d="M 218.5 527 L 219 531.5 L 218 531.5 L 218.5 527 Z " /><path fill="rgb(80,69,59)" stroke="rgb(80,69,59)" stroke-width="1" opacity="1" d="M 228.5 527 L 228 528.5 L 227.5 531 L 227 528.5 L 228.5 527 Z " /><path fill="rgb(80,69,59)" stroke="rgb(80,69,59)" stroke-width="1" opacity="1" d="M 238.5 527 L 239 531.5 L 238 531.5 L 238.5 527 Z " /><path fill="rgb(80,69,59)" stroke="rgb(80,69,59)" stroke-width="1" opacity="1" d="M 248.5 527 L 249 531.5 L 248 531.5 L 248.5 527 Z " /><path fill="rgb(80,69,59)" stroke="rgb(80,69,59)" stroke-width="1" opacity="1" d="M 252.5 527 L 253 531.5 L 252 531.5 L 252.5 527 Z " /><path fill="rgb(80,69,59)" stroke="rgb(80,69,59)" stroke-width="1" opacity="1" d="M 55.5 528 L 56 531.5 L 55 531.5 L 55.5 528 Z " /><path fill="rgb(80,69,59)" stroke="rgb(80,69,59)" stroke-width="1" opacity="1" d="M 65.5 528 L 66 531.5 L 65 531.5 L 65.5 528 Z " /><path fill="rgb(80,69,59)" stroke="rgb(80,69,59)" stroke-width="1" opacity="1" d="M 93.5 528 L 94 531.5 L 93 531.5 L 93.5 528 Z " /><path fill="rgb(80,69,59)" stroke="rgb(80,69,59)" stroke-width="1" opacity="1" d="M 173.5 528 L 174 531.5 L 173 531.5 L 173.5 528 Z " /><path fill="rgb(80,69,59)" stroke="rgb(80,69,59)" stroke-width="1" opacity="1" d="M 211.5 528 L 212 531.5 L 211 531.5 L 211.5 528 Z " /><path fill="rgb(80,69,59)" stroke="rgb(80,69,59)" stroke-width="1" opacity="1" d="M 241.5 528 L 242 531.5 L 241 531.5 L 241.5 528 Z " /><path fill="rgb(80,69,59)" stroke="rgb(80,69,59)" stroke-width="1" opacity="1" d="M 245.5 528 L 246 531.5 L 245 531.5 L 245.5 528 Z " /><path fill="rgb(80,69,59)" stroke="rgb(80,69,59)" stroke-width="1" opacity="1" d="M 168.5 529 L 170 531.5 L 168 530.5 L 168.5 529 Z " /><path fill="rgb(80,69,59)" stroke="rgb(80,69,59)" stroke-width="1" opacity="1" d="M 209.5 585 L 213 586.5 Q 207.6 585.6 206 588.5 Q 205 594 208.5 595 Q 212.7 596.1 211 592 L 209 591.5 L 213 591 L 213 596 L 206.5 596 L 204 590.5 L 206.5 586 L 209.5 585 Z " /><path fill="rgb(80,69,59)" stroke="rgb(80,69,59)" stroke-width="1" opacity="1" d="M 163.5 586 L 172 586.5 L 168 587 L 167.5 596 L 167 587 Q 162.6 588 163.5 586 Z " /><path fill="rgb(80,69,59)" stroke="rgb(80,69,59)" stroke-width="1" opacity="1" d="M 173 586 Q 178.4 584.5 180 587.5 L 178 592.5 L 180 595.5 L 177 593.5 Q 177.7 590.5 174 592 L 173.5 596 L 173 586 Z M 174 587 L 176 591 L 178 590 Q 179 585 174 587 Z " /><path fill="rgb(80,69,59)" stroke="rgb(80,69,59)" stroke-width="1" opacity="1" d="M 181.5 586 L 184 587.5 L 185.5 590 L 187 586 Q 189.7 584.9 189 587.5 Q 184.9 589.8 186 596 Q 182 597.4 184 590.5 L 181.5 586 Z " /><path fill="rgb(80,69,59)" stroke="rgb(80,69,59)" stroke-width="1" opacity="1" d="M 198.5 586 Q 200.8 585.3 200 587.5 L 203 595.5 L 201 594.5 Q 201.9 591.5 197.5 593 L 196 596 L 194 595.5 L 198.5 586 Z M 199 588 L 197 592 L 200 592 L 199 588 Z " /><path fill="rgb(80,69,59)" stroke="rgb(80,69,59)" stroke-width="1" opacity="1" d="M 218.5 586 Q 220.8 585.3 220 587.5 L 223 595.5 L 221 594.5 Q 221.9 591.5 217.5 593 L 216 596 L 214 595.5 L 218.5 586 Z M 219 588 L 217 592 L 220 592 L 219 588 Z " /><path fill="rgb(80,69,59)" stroke="rgb(80,69,59)" stroke-width="1" opacity="1" d="M 225 586 L 227 586.5 L 227 596 L 225 595.5 L 225 586 Z " /><path fill="rgb(80,69,59)" stroke="rgb(80,69,59)" stroke-width="1" opacity="1" d="M 229 586 L 233 588.5 L 235.5 593 L 236.5 586 L 237 596 Q 234.3 597.1 235 594.5 L 231.5 590 L 231 596 L 229 595.5 L 229 586 Z " /><path fill="rgb(250,250,247)" stroke="rgb(250,250,247)" stroke-width="1" opacity="1" d="M 0.5 5 L 403 5.5 L 13.5 6 L 10.5 7 L 9.5 6 L 0.5 6 L 0.5 5 Z " /><path fill="rgb(250,250,247)" stroke="rgb(250,250,247)" stroke-width="1" opacity="1" d="M 235 64 L 251 64 L 251 68.5 L 253 69 L 253 71.5 Q 251 75 249 70.5 L 246.5 67 Q 245 69.5 243.5 66 L 239.5 66 L 234 70 L 235 73.5 L 233 74.5 L 232 71.5 Q 235.5 70 233 68.5 L 235 64 Z " /><path fill="rgb(250,250,247)" stroke="rgb(250,250,247)" stroke-width="1" opacity="1" d="M 253.5 73 L 254.5 75 L 258 74 Q 256.9 76.7 259.5 76 Q 262.3 77.3 261 82.5 L 260 84.5 L 263 86 L 263 89 Q 260.3 87.9 261 90.5 L 259 94.5 Q 261.8 95.6 261 99 L 264 100.5 L 264 112.5 L 265.5 114 L 268 113 Q 267 117.3 270 116.5 L 270 129 Q 267 128 268 131 Q 271 130 270 133 L 273 133 L 273 136 L 266 136 L 266 133.5 L 267 131.5 Q 265.5 128.5 264 131.5 L 265 134.5 L 264 134.5 L 263 127.5 Q 265.8 124.8 265 118.5 Q 257.4 105.1 258 83.5 L 253 75.5 L 253.5 73 Z " /><path fill="rgb(250,250,247)" stroke="rgb(250,250,247)" stroke-width="1" opacity="1" d="M 171 76 L 181 76 L 181 82.5 L 184 84 Q 183 87 186 86 L 186 89 L 189 89 Q 187.7 84.9 191 86 L 191 90 L 189.5 90 L 189.5 91 L 194 92 L 194 100.5 L 196.5 103 L 201 103 Q 199.7 107.1 203 106 Q 201.7 102.3 207.5 104 L 209.5 103 L 212.5 107 Q 216.3 107.8 217 105.5 L 218.5 103 L 221 104.5 L 222 106.5 Q 220 109.5 214.5 109 L 209.5 108 Q 206.3 111 200 110 L 201 106 Q 197.7 104.7 199 109.5 L 195.5 107 Q 193.3 107.8 194 105.5 L 190 99.5 L 190.5 98 Q 188.3 98.8 189 96.5 L 179.5 84 L 174 81 L 173.5 79 L 171.5 80 Q 170.3 77.8 165.5 79 L 161 81 L 157 89 Q 154.3 87.9 155 90.5 Q 157.2 91.8 154.5 93 L 153 89.5 L 155 88.5 L 154 86 Q 157 87.3 156 83.5 L 157.5 84 L 162.5 79 L 171 78 L 171 76 Z " /><path fill="rgb(250,250,247)" stroke="rgb(250,250,247)" stroke-width="1" opacity="1" d="M 231 76 L 234 77.5 L 233 80.5 L 233 98.5 L 231.5 100 Q 228.8 98.7 231 97.5 L 231 76 Z " /><path fill="rgb(250,250,247)" stroke="rgb(250,250,247)" stroke-width="1" opacity="1" d="M 154.5 95 L 155 104.5 L 154 104.5 L 154.5 95 Z " /><path fill="rgb(250,250,247)" stroke="rgb(250,250,247)" stroke-width="1" opacity="1" d="M 229.5 101 Q 232.8 99.9 232 102.5 L 231 105 L 226 106 L 229.5 101 Z " /><path fill="rgb(250,250,247)" stroke="rgb(250,250,247)" stroke-width="1" opacity="1" d="M 154.5 106 L 157 112.5 L 156 114.5 L 160 119.5 L 160 121.5 Q 160.8 125.3 158.5 126 L 156 118.5 Q 158.3 117.3 155.5 116 L 154 115.5 L 154.5 106 Z " /><path fill="rgb(250,250,247)" stroke="rgb(250,250,247)" stroke-width="1" opacity="1" d="M 159.5 127 L 161 131 Q 157.2 132.5 158 129.5 L 159.5 127 Z " /><path fill="rgb(250,250,247)" stroke="rgb(250,250,247)" stroke-width="1" opacity="1" d="M 161.5 132 L 165.5 140 Q 169.9 138.5 169 141.5 Q 173 144.8 173 151 L 175 151.5 L 174.5 153 Q 177.1 152.2 176 155.5 Q 179.7 159.8 178 169.5 L 168 180.5 L 163 191 L 161 191 L 161 185 Q 164.8 186.5 164 183.5 L 163.5 182 L 165.5 183 Q 170.1 180.1 171 173.5 L 176 168.5 L 177 160.5 L 175 159.5 L 174.5 161 L 174 156 Q 169.1 157.8 171 151.5 L 169 146 L 161 146 L 161 141.5 Q 157.5 142.3 159 136 L 161 136 L 161.5 132 Z " /><path fill="rgb(250,250,247)" stroke="rgb(250,250,247)" stroke-width="1" opacity="1" d="M 265.5 137 L 268 138 L 268 142 L 269.5 142 L 271 146 Q 274 144.8 273 148.5 L 274 149.5 L 274 165 L 280 165 L 280 169 L 275 169 L 275 170.5 L 273 176.5 L 283 180 L 283 184.5 L 281 188 Q 283.7 186.9 283 189.5 L 285 191.5 Q 285 199 288.5 203 Q 290.8 202.3 290 204.5 L 289 206.5 L 290 208.5 L 288 209.5 L 284 198.5 L 285 196.5 L 283 196.5 Q 280.5 186 273.5 180 L 266 174.5 L 272 163.5 L 272 156.5 L 269 153.5 L 268 145.5 L 265.5 137 Z M 268 174 L 269 175 L 270 176 Q 271 173 268 174 Z " /><path fill="rgb(250,250,247)" stroke="rgb(250,250,247)" stroke-width="1" opacity="1" d="M 159.5 193 L 161 195.5 L 154 204.5 L 149 216.5 L 148 223.5 L 145 227.5 L 146 229.5 L 142.5 234 L 133.5 242 L 134 240.5 Q 132.5 236.1 135.5 237 L 143 232.5 L 141 232 L 141 225 L 146 225 L 146 219.5 Q 149.3 220.5 148 214.5 L 150.5 209 Q 153.9 209.9 152 204.5 L 155 198 Q 157.7 199.1 157 196.5 L 159.5 193 Z " /><path fill="rgb(250,250,247)" stroke="rgb(250,250,247)" stroke-width="1" opacity="1" d="M 290 210 Q 293 209 292 212 L 295 212 L 295 215 L 298 215 L 298 220 Q 294.3 218.7 296 224.5 L 297 227.5 L 296 227.5 L 295.5 225 L 295 228.5 L 296 230.5 L 295 231.5 L 295 245 L 289 245.5 L 289 247.5 L 289 261.5 L 290 264 L 293 264 L 293 270 L 290 270 L 290 272 L 286 274 L 286 276.5 L 284 278.5 L 283 287 L 280 285.5 L 279 283.5 L 285 273.5 L 288 260.5 L 287 259.5 L 287 246.5 L 291 232.5 L 292 222.5 L 289 212.5 L 290 210 Z M 296 218 L 294 220 L 296 220 L 296 218 Z M 291 238 L 290 243 L 291 243 L 291 238 Z " /><path fill="rgb(250,250,247)" stroke="rgb(250,250,247)" stroke-width="1" opacity="1" d="M 130 243 L 132 243.5 L 115.5 261 L 114 261.5 Q 116.5 263 113 264.5 L 108.5 272 L 108 269.5 L 110 263 L 114 260.5 L 114.5 259 L 116 259.5 L 116 255 Q 120.9 256.8 119 250.5 L 126 246.5 L 124 245.5 L 125.5 245 L 127.5 246 L 130 245 L 130 243 Z " /><path fill="rgb(250,250,247)" stroke="rgb(250,250,247)" stroke-width="1" opacity="1" d="M 106.5 274 L 108 292.5 L 107 292.5 L 106 287.5 L 106.5 274 Z " /><path fill="rgb(250,250,247)" stroke="rgb(250,250,247)" stroke-width="1" opacity="1" d="M 278.5 285 L 281 288.5 L 279 289 L 280 294.5 L 280 309 L 283 309 Q 282 312 285 311 L 285 314 Q 289.1 312.7 288 316 L 296.5 316 L 303.5 321 L 307 321 L 308.5 324 Q 310.8 323.3 310 325.5 L 311 327.5 L 310 330 Q 307 328.8 308 332.5 L 307 333.5 L 307 344 L 305 344 L 305 340 L 303.5 340 L 302 344 L 284.5 344 L 280.5 346 L 275.5 346 L 268.5 348 L 265.5 347 L 250.5 350 L 249.5 349 L 241.5 349 L 238.5 350 L 227.5 348 Q 226.1 350.6 221.5 350 L 220.5 349 L 191.5 349 L 189.5 348 L 184 349 L 184 354 L 181 354 L 180.5 349 L 175 350 Q 177 356 171 354 Q 172.3 349.9 169 351 L 169 354 L 161.5 354 L 157.5 352 Q 156 354.5 150.5 353 L 147.5 355 L 129.5 355 L 124 354 Q 125.1 351.3 122.5 352 L 121.5 351 L 112 351 L 112 346 L 109.5 346 L 104 344 Q 105.8 339.5 100.5 341 L 97 339 L 97 336 Q 94.3 337.1 95 334.5 L 94 333.5 L 94 321 L 99 321 L 99 319.5 L 102 318 L 104 314 L 108 314 L 108 309.5 L 112 308 L 112.5 306 L 113 307.5 L 111 312.5 L 115 318.5 L 115 322 L 112 322 L 112 324 Q 109.3 322.9 110 325.5 L 107 327 L 107 330 L 109 330 L 109 333 L 111 333 L 111 336 Q 113.7 334.9 113 337.5 L 114 340 L 131.5 345 L 135.5 345 L 147.5 351 L 152.5 350 L 156.5 351 L 159.5 349 Q 161.3 351.8 167.5 350 L 168.5 349 L 176.5 349 L 192.5 346 L 210 346 L 210.5 344 L 212.5 344 L 243 342 Q 241.9 344.7 244.5 344 L 247.5 343 L 250.5 344 L 251.5 343 L 260 343 Q 258.7 346.3 263.5 345 L 265.5 345 L 267.5 344 L 272.5 345 Q 274.2 342.3 280.5 344 L 284.5 342 Q 292.8 342.9 297 341 L 296.5 336 L 295 336.5 L 294 333.5 L 296 332.5 L 291 329.5 L 294 329 L 292.5 326 L 290.5 325 L 289.5 327 L 289 325 Q 286.3 326.1 287 323.5 L 285.5 324 L 282.5 322 Q 274.2 315.3 275 299.5 L 276 294 L 278 293.5 L 277 289.5 L 278.5 285 Z " /><path fill="rgb(250,250,247)" stroke="rgb(250,250,247)" stroke-width="1" opacity="1" d="M 254.5 289 L 256 290.5 L 256 298.5 L 254 302.5 L 256 310.5 L 253.5 309 Q 248.2 309.8 246.5 307 L 242.5 308 L 239 306.5 L 250 297.5 L 254.5 289 Z " /><path fill="rgb(250,250,247)" stroke="rgb(250,250,247)" stroke-width="1" opacity="1" d="M 108.5 294 L 110 299.5 L 108 298.5 L 108.5 294 Z " /><path fill="rgb(250,250,247)" stroke="rgb(250,250,247)" stroke-width="1" opacity="1" d="M 108.5 301 L 111 301.5 L 113 304.5 L 111 305 Q 112 308 109 307 L 108.5 301 Z " /><path fill="rgb(250,250,247)" stroke="rgb(250,250,247)" stroke-width="1" opacity="1" d="M 137.5 315 L 137 316.5 L 136.5 318 L 136 316.5 L 137.5 315 Z " /><path fill="rgb(250,250,247)" stroke="rgb(250,250,247)" stroke-width="1" opacity="1" d="M 201.5 350 L 204 350.5 L 201.5 351 L 201.5 350 Z " /><path fill="rgb(250,250,247)" stroke="rgb(250,250,247)" stroke-width="1" opacity="1" d="M 208 351 Q 212.5 349.5 211 354 L 208 352.5 L 208 351 Z " /><path fill="rgb(250,250,247)" stroke="rgb(250,250,247)" stroke-width="1" opacity="1" d="M 50.5 452 L 57.5 454 L 60 453 L 59.5 456 L 50.5 453 L 50 455 L 46 457.5 L 44.5 468 L 44 459.5 L 46.5 455 L 50.5 452 Z " /><path fill="rgb(250,250,247)" stroke="rgb(250,250,247)" stroke-width="1" opacity="1" d="M 70.5 452 L 72.5 452 L 75.5 453 L 77.5 452 L 80 453 L 80.5 455 L 83 454 L 83.5 452 L 85.5 452 L 90.5 453 L 92.5 452 L 95 453 L 95.5 455 Q 96.8 452.8 98 455.5 L 97.5 457 L 99 457.5 L 98 461.5 L 99 464 L 106 467.5 L 101.5 469 L 99.5 468 L 98 472 L 100 472.5 L 97 473 L 97 468 L 95.5 468 L 93 467 L 93 470 Q 96 469 95 472 L 88 473 L 88 467 L 90.5 467 L 97 462.5 L 97 458.5 L 95 455 L 85.5 454 L 83 456.5 L 83 458.5 L 84 463.5 L 83 465.5 L 84 467.5 L 83 469.5 L 84 473 L 76 472.5 L 80 469.5 L 82 457.5 Q 79.7 459.2 77.5 455 L 70.5 454 L 68.5 455 L 70.5 452 Z " /><path fill="rgb(250,250,247)" stroke="rgb(250,250,247)" stroke-width="1" opacity="1" d="M 102.5 452 L 107.5 453 L 109 452.5 L 110 454.5 L 108.5 455 Q 107.2 452.7 102.5 454 L 99.5 456 L 102.5 452 Z " /><path fill="rgb(250,250,247)" stroke="rgb(250,250,247)" stroke-width="1" opacity="1" d="M 114.5 452 L 119 454 L 119 461 L 122 461.5 L 122 469.5 L 123 471.5 L 119.5 474 L 117.5 474 L 113.5 474 L 113 472 L 110.5 472 Q 108.2 475.2 101.5 474 L 101.5 473 Q 109.1 474.1 111 469.5 L 111.5 463 L 112 466 Q 115 465 114 468 L 112 468.5 L 114.5 473 Q 119.8 474.8 118 469.5 Q 114.5 468 117 466.5 L 118 463.5 L 117 461.5 Q 119.3 460.2 118 455.5 Q 116.8 453 113 454 L 112.5 461 L 112 459 L 108 460 Q 109.1 462.7 106.5 462 L 104 461 Q 102.3 456.9 106.5 458 L 110 459 Q 110.5 454.3 114.5 452 Z " /><path fill="rgb(250,250,247)" stroke="rgb(250,250,247)" stroke-width="1" opacity="1" d="M 66.5 455 L 66 456.5 L 63 461.5 L 64 463.5 L 63 466.5 L 63.5 468 L 65 467.5 Q 64.5 471.5 67.5 472 L 75 473 Q 76.1 475.7 73.5 475 L 69.5 474 L 67 475 Q 68 472 65 473 L 65 470 L 63.5 470 L 60 471.5 Q 60.8 474.1 57.5 473 L 57.5 472 L 60 470.5 L 63 463.5 L 60 457.5 L 62 457 Q 61 460 64 459 L 66.5 455 Z " /><path fill="rgb(250,250,247)" stroke="rgb(250,250,247)" stroke-width="1" opacity="1" d="M 52.5 458 Q 56.5 457.5 57 460.5 L 56 465.5 L 56.5 467 Q 54.3 466.3 55 468.5 L 51.5 468 Q 48.5 468.9 50 464.5 L 50 462.5 Q 48.5 458.1 51.5 459 L 52.5 458 Z M 53 460 L 51 464 Q 49 469 55 467 L 54 466 L 56 465 Q 57 462 53 463 L 53 460 Z " /><path fill="rgb(250,250,247)" stroke="rgb(250,250,247)" stroke-width="1" opacity="1" d="M 71.5 458 Q 75.5 457.5 76 460.5 Q 77.5 467.5 73.5 469 L 72.5 467 L 71.5 469 Q 68.5 468.5 69 464.5 L 70 462.5 L 69 460.5 L 71.5 458 Z " /><path fill="rgb(250,250,247)" stroke="rgb(250,250,247)" stroke-width="1" opacity="1" d="M 89.5 458 L 92 459.5 L 89 460.5 L 89.5 462 Q 87.3 462.8 88 460.5 L 89.5 458 Z " /><path fill="rgb(250,250,247)" stroke="rgb(250,250,247)" stroke-width="1" opacity="1" d="M 45.5 469 L 48 472.5 L 47 472.5 L 45.5 469 Z " /><path fill="rgb(250,250,247)" stroke="rgb(250,250,247)" stroke-width="1" opacity="1" d="M 49.5 472 L 56 473.5 L 49 474 L 49.5 472 Z " /><path fill="rgb(250,250,247)" stroke="rgb(250,250,247)" stroke-width="1" opacity="1" d="M 50.5 475 L 56 475.5 L 50.5 476 L 50.5 475 Z " /><path fill="rgb(250,250,247)" stroke="rgb(250,250,247)" stroke-width="1" opacity="1" d="M 59.5 489 L 61 489.5 L 61 496.5 L 63 496.5 Q 60.5 498 62 503.5 L 66 508.5 L 63.5 512 L 58.5 513 L 53 512 L 52 507 Q 48.3 508.2 50 503 Q 52.7 501.9 52 504.5 L 56.5 510 L 60 509 L 60 491.5 L 56.5 491 L 56.5 490 L 59.5 489 Z " /><path fill="rgb(250,250,247)" stroke="rgb(250,250,247)" stroke-width="1" opacity="1" d="M 70.5 489 L 72 489.5 L 69.5 491 L 70.5 489 Z " /><path fill="rgb(250,250,247)" stroke="rgb(250,250,247)" stroke-width="1" opacity="1" d="M 95.5 489 L 103 490.5 L 96 491 L 96 508.5 L 100 509 L 100 501.5 L 102 501 L 106.5 509 Q 112.8 507.1 111 512 L 107.5 513 L 106.5 512 L 95 512 L 96 509.5 L 94 509 L 94 513 L 92.5 513 Q 91 509.5 89.5 512 Q 86.1 512.9 88 507.5 L 87 506.5 L 87 492.5 Q 87.8 489.3 92.5 490 Q 94.3 493.7 96 490.5 L 95.5 489 Z M 89 491 L 89 509 L 93 510 L 94 509 L 94 493 Q 93 490 89 491 Z " /><path fill="rgb(250,250,247)" stroke="rgb(250,250,247)" stroke-width="1" opacity="1" d="M 110.5 489 L 112.5 490 L 126.5 490 L 128.5 490 L 141.5 490 L 142.5 489 L 143.5 490 L 151.5 490 L 157 493.5 L 157.5 500 L 158 490 L 164.5 489 L 166 492 L 169 490.5 L 168.5 489 L 175 491 L 175 507.5 L 173 512 L 169.5 513 L 164.5 511 L 159 512 L 158.5 515 L 155.5 511 L 152.5 512 L 141.5 512 L 141 510.5 L 138.5 512 L 129.5 513 L 118 511 Q 116.7 507.7 121.5 509 Q 123 511.5 124.5 508 Q 128.3 509 127 506 L 122 506 L 122 499.5 L 123 496 L 127 496 L 127 494.5 L 127 492.5 L 126.5 491 L 113.5 491 L 111 492.5 L 111 491 L 107 491 L 106.5 501 L 102 492.5 L 103 492.5 L 105.5 497 Q 104.6 491.6 107.5 490 L 110.5 489 Z M 129 491 L 129 509 L 134 510 L 139 509 L 142 510 L 142 507 Q 141 504 140 506 Q 133 508 134 504 L 136 504 L 133 503 L 137 502 Q 138 504 139 502 L 139 498 L 133 498 L 133 496 L 140 496 L 141 495 L 141 491 L 129 491 Z M 143 491 L 143 509 L 147 509 L 147 504 L 149 503 L 150 506 Q 152 505 151 508 Q 152 510 157 509 L 155 506 L 156 504 L 155 504 L 154 502 Q 157 500 156 495 Q 153 489 143 491 Z M 159 491 L 159 509 L 163 509 Q 165 508 163 507 L 164 501 L 165 504 Q 167 503 166 506 L 166 508 L 172 510 L 174 504 L 173 500 L 173 498 L 173 491 L 169 491 L 169 501 L 164 493 Q 163 490 159 491 Z M 127 497 L 124 500 Q 123 504 127 502 L 127 497 Z " /><path fill="rgb(250,250,247)" stroke="rgb(250,250,247)" stroke-width="1" opacity="1" d="M 188.5 489 L 191.5 490 L 204.5 490 L 208 492.5 L 208 497 L 199.5 497 L 199.5 496 Q 203.3 496.8 204 494.5 L 202.5 491 L 189.5 491 L 188.5 492 Q 185.5 490.5 188.5 489 Z " /><path fill="rgb(250,250,247)" stroke="rgb(250,250,247)" stroke-width="1" opacity="1" d="M 45.5 490 Q 51.5 489 52.5 493 L 55 492 L 54.5 499 L 50 491 L 45 491.5 L 45 509 L 47.5 510 L 49 509.5 Q 49.8 512.1 46.5 511 L 45 511.5 L 44 508.5 L 44 491.5 L 45.5 490 Z " /><path fill="rgb(250,250,247)" stroke="rgb(250,250,247)" stroke-width="1" opacity="1" d="M 177.5 490 L 186 490.5 L 177.5 491 L 176.5 492 L 177.5 490 Z " /><path fill="rgb(250,250,247)" stroke="rgb(250,250,247)" stroke-width="1" opacity="1" d="M 66.5 491 L 63.5 495 Q 61.3 495.8 62 493.5 L 66.5 491 Z " /><path fill="rgb(250,250,247)" stroke="rgb(250,250,247)" stroke-width="1" opacity="1" d="M 74.5 491 L 78 492.5 L 76.5 493 L 74.5 491 Z " /><path fill="rgb(250,250,247)" stroke="rgb(250,250,247)" stroke-width="1" opacity="1" d="M 78.5 494 L 79.5 496 L 78.5 494 Z " /><path fill="rgb(250,250,247)" stroke="rgb(250,250,247)" stroke-width="1" opacity="1" d="M 69.5 495 Q 71.8 494.3 71 496.5 L 72.5 496 Q 75.1 495.2 74 498.5 L 75 502.5 Q 74.5 506.5 69.5 506 Q 66.2 504.3 67 498.5 L 69.5 495 Z M 71 500 L 68 501 L 70 504 Q 74 504 74 502 Q 75 498 71 500 Z " /><path fill="rgb(250,250,247)" stroke="rgb(250,250,247)" stroke-width="1" opacity="1" d="M 148.5 495 L 151 496.5 Q 152.2 501.1 147 499 L 148.5 495 Z " /><path fill="rgb(250,250,247)" stroke="rgb(250,250,247)" stroke-width="1" opacity="1" d="M 182.5 495 L 193 496 L 194 504.5 L 193 507.5 Q 193.8 509.8 197.5 509 L 199 508.5 L 195.5 513 L 182.5 511 L 179.5 513 L 176 511 Q 174.8 508 178.5 509 L 182.5 509 L 189 509 L 189 506 L 182.5 506 L 181 504.5 L 182.5 502 Q 189.3 504 187 498 Q 182.4 499.3 181 496.5 L 182.5 495 Z M 190 497 L 188 501 L 188 503 L 182 503 Q 181 506 184 505 L 186 505 L 189 504 L 193 505 Q 194 501 191 502 L 190 497 Z " /><path fill="rgb(250,250,247)" stroke="rgb(250,250,247)" stroke-width="1" opacity="1" d="M 114 496 L 118 496.5 L 117 500 L 114 500 Q 115 503 112 502 Q 111 499 114 500 L 114 496 Z " /><path fill="rgb(250,250,247)" stroke="rgb(250,250,247)" stroke-width="1" opacity="1" d="M 79.5 503 L 80 505.5 L 77 509.5 L 78 512 L 70 513 Q 71.1 510.3 68.5 511 L 67.5 509 Q 68.8 511.2 73.5 510 L 79 505.5 L 79.5 503 Z " /><path fill="rgb(250,250,247)" stroke="rgb(250,250,247)" stroke-width="1" opacity="1" d="M 51.5 522 L 59.5 525 L 63 524 L 61 527.5 L 64 528.5 L 60 530.5 L 60.5 532 L 58.5 532 L 56 530.5 L 58.5 530 L 61 528.5 L 57.5 525 L 56.5 526 Q 53.9 525.2 55 528.5 L 54 530.5 L 55 533 L 66 533 L 66 528.5 L 67 528.5 Q 66.3 530.8 68.5 530 L 69.5 532 L 67 532.5 L 72 533 Q 72.8 529.6 70 528.5 L 74.5 526 L 74.5 527 L 73 527.5 L 73 533 L 79 532.5 L 75 531.5 L 78.5 530 L 82 529 L 83 533 Q 89.1 534.8 91 531.5 L 90 528.5 L 92 528 L 92 533 L 94 533 L 94 527.5 L 95.5 527 L 98.5 524 L 102.5 526 L 104.5 524 L 112 522 L 113.5 526 L 114 524 L 120.5 525 L 123.5 524 L 127 525.5 L 125.5 525 L 123 525.5 L 125 526.5 L 123.5 527 L 121 525.5 L 119.5 528 Q 117.3 528.8 118 526.5 L 116 527.5 L 118 530.5 L 118 532.5 L 117 536 L 120 534.5 L 121.5 530 L 123 533 Q 127.6 534.3 129 531.5 L 129.5 528 L 130 533 L 133.5 534 L 136 533 L 136 526.5 L 134 526 L 133 528.5 L 134 532 L 132 532 L 132 526.5 L 130.5 526 L 129.5 524 Q 136.5 522.5 136 525.5 L 138.5 524 L 139.5 525 L 141.5 524 L 141.5 526 L 144 526 L 144 531 L 142 531 Q 143.1 528.3 140.5 529 L 140 531.5 L 139 537 L 142 537 Q 141 540 144 539 L 144 542 L 137 542 L 136.5 539 L 117.5 539 L 116.5 537 L 107.5 537 L 107 535.5 L 103 534 L 102 539 L 99 537.5 Q 100.8 532.3 95.5 534 L 96 535.5 L 95 539 L 92 539 L 92 537 L 90 537 Q 91.1 534.3 88.5 535 L 84.5 534 L 82.5 534 L 79.5 533 L 77 534 L 77 537 L 72 537 L 73 534.5 L 69.5 534 L 70 535.5 Q 70.7 538.5 67 537 L 66.5 535 L 65 539 L 57.5 539 Q 58.1 536.3 55 537 L 55 535 L 51.5 535 L 48.5 533 Q 45.7 534.3 48 535.5 Q 48.7 538.1 46 537 L 43 532.5 L 43 524.5 L 44.5 523 Q 50 524.5 51.5 522 Z M 109 523 L 107 527 L 106 525 L 103 527 L 99 525 Q 94 526 95 532 Q 96 534 101 533 L 101 532 Q 96 533 97 530 L 100 531 Q 103 530 102 533 L 113 533 L 111 530 L 114 528 Q 113 525 112 527 L 109 523 Z M 44 524 L 44 533 Q 47 534 46 530 Q 51 529 49 533 L 54 533 L 53 532 L 53 524 L 44 524 Z M 139 525 L 137 527 L 137 533 Q 140 534 139 530 L 142 528 L 139 525 Z " /><path fill="rgb(250,250,247)" stroke="rgb(250,250,247)" stroke-width="1" opacity="1" d="M 162 522 L 171 522 L 171 526.5 L 167.5 526 L 166 527.5 L 165.5 529 L 164 525 L 161.5 526 L 159 525 Q 160.1 527.7 157.5 527 Q 155.5 523 153.5 527 Q 150.1 526.1 152 531.5 Q 153.4 534.3 158 533 L 157.5 531 L 154.5 532 L 154.5 531 L 158 529.5 L 158.5 528 L 159 533 L 163 532.5 L 161 532 Q 159.3 526.8 163 528 L 164.5 534 L 167 533 L 167.5 531 L 168 533 L 171 531.5 L 171.5 530 L 173 533.5 L 171 533.5 Q 170.3 536.1 173 535 L 173 537 L 169 539 L 167.5 533 Q 164.8 534.4 166 539 L 156.5 539 L 155.5 537 L 149 537 L 149 534.5 L 147 528.5 L 149 528 L 149 533 L 151 533 Q 152.5 527.6 149.5 526 L 146 525.5 L 148.5 524 L 151 524.5 L 151.5 526 L 152.5 524 L 154.5 525 L 156.5 525 L 162 524 L 162 522 Z " /><path fill="rgb(250,250,247)" stroke="rgb(250,250,247)" stroke-width="1" opacity="1" d="M 184.5 522 L 187 523.5 L 187.5 526 L 189.5 525 L 192.5 527 L 193.5 524 L 196.5 525 L 198 524.5 Q 196 528.2 194 526.5 Q 194.8 529.1 191.5 528 L 192 529.5 L 191.5 531 L 188 529.5 L 190 526 L 186.5 528 L 185.5 523 L 184 526 L 181.5 527 L 183 524.5 L 184.5 522 Z " /><path fill="rgb(250,250,247)" stroke="rgb(250,250,247)" stroke-width="1" opacity="1" d="M 211 522 L 238.5 522 L 239 524 Q 236.3 522.9 237 525.5 L 237.5 527 L 233 525 Q 234.1 527.7 231.5 527 L 228.5 526 L 226 530.5 L 227 533 L 232 533.5 Q 230.8 536.3 229.5 534 L 227 534.5 L 228 539 L 206.5 539 L 203 536.5 L 204 534.5 L 200.5 534 L 199 537 Q 196.3 538.1 197 535.5 L 193 534 L 193.5 531 L 194 533 L 199 532.5 L 196 532 Q 194.1 526.4 199 528 Q 198 531.8 200.5 533 Q 205.9 534.9 205 531.5 L 206 531.5 Q 205.3 534.1 208 533 L 208 528 L 209.5 528 L 211 531.5 L 211.5 533 L 212.5 528 L 213 533 Q 216.3 534.3 215 529.5 L 217 528.5 Q 215.1 534.8 220 533 L 220.5 531 L 221 533 L 226 532.5 L 222 530.5 L 226 530 Q 227 526.2 224.5 525 L 221 526.5 Q 221.7 529.1 219 528 Q 220.3 525 216.5 526 L 215 526.5 L 214.5 524 L 214 526 L 211.5 527 L 208.5 525 L 206 526 L 205.5 529 L 203.5 526 L 198.5 527 L 198.5 526 L 202.5 524 L 206.5 524 L 211 525 L 211 522 Z " /><path fill="rgb(250,250,247)" stroke="rgb(250,250,247)" stroke-width="1" opacity="1" d="M 241.5 522 L 243 522 L 243 525 Q 246.7 523.5 246 526.5 L 248 526.5 Q 246.3 529.8 244.5 526 L 240.5 528 L 239 525.5 L 241.5 522 Z " /><path fill="rgb(250,250,247)" stroke="rgb(250,250,247)" stroke-width="1" opacity="1" d="M 87 523 L 89 523.5 L 87.5 527 L 85 526 L 85.5 524 L 87 524.5 L 87 523 Z " /><path fill="rgb(250,250,247)" stroke="rgb(250,250,247)" stroke-width="1" opacity="1" d="M 64.5 524 L 66.5 527 L 64 525.5 L 64.5 524 Z " /><path fill="rgb(250,250,247)" stroke="rgb(250,250,247)" stroke-width="1" opacity="1" d="M 68.5 524 L 71 524.5 L 68.5 525 L 68.5 524 Z " /><path fill="rgb(250,250,247)" stroke="rgb(250,250,247)" stroke-width="1" opacity="1" d="M 78.5 524 Q 80.8 523.3 80 525.5 L 79.5 528 L 77 527 L 78.5 524 Z " /><path fill="rgb(250,250,247)" stroke="rgb(250,250,247)" stroke-width="1" opacity="1" d="M 83.5 524 L 84 526.5 L 82 527.5 L 83.5 524 Z " /><path fill="rgb(250,250,247)" stroke="rgb(250,250,247)" stroke-width="1" opacity="1" d="M 91.5 524 Q 95.3 523 94 526 L 91.5 524 Z " /><path fill="rgb(250,250,247)" stroke="rgb(250,250,247)" stroke-width="1" opacity="1" d="M 174.5 524 L 179.5 525 L 181 524.5 Q 177.5 526 180 527.5 L 180.5 533 L 182.5 528 L 184 528 L 184 533 L 186 533 L 186.5 531 L 189.5 533 L 189.5 531 Q 192.3 532.2 190 533.5 L 189 539 L 184 538 L 182.5 534 L 180.5 534 L 176.5 535 L 174 533.5 L 178 533 L 179 528.5 L 174.5 524 Z " /><path fill="rgb(250,250,247)" stroke="rgb(250,250,247)" stroke-width="1" opacity="1" d="M 250 524 L 252.5 525 L 258 524 Q 257 528.3 260 527.5 L 260 532.5 Q 259 536 253.5 535 L 251.5 535 L 248.5 534 L 248 539 L 241 539 Q 242.1 535.7 238 537 L 238 533 L 240.5 532 L 246 533 L 247.5 530 L 248.5 533 Q 251.1 533.8 250 530.5 L 250.5 528 L 253.5 534 L 254 527.5 L 250.5 526 L 249 526.5 L 250 524 Z M 256 530 L 255 533 L 258 532 L 256 530 Z " /><path fill="rgb(250,250,247)" stroke="rgb(250,250,247)" stroke-width="1" opacity="1" d="M 172.5 525 L 173.5 527 Q 170.7 527.7 172.5 525 Z " /><path fill="rgb(250,250,247)" stroke="rgb(250,250,247)" stroke-width="1" opacity="1" d="M 47.5 526 Q 50.1 525.3 49 528 L 46 527.5 L 47.5 526 Z " /><path fill="rgb(250,250,247)" stroke="rgb(250,250,247)" stroke-width="1" opacity="1" d="M 84 528 Q 88.9 526.4 87 532 L 84 530.5 L 84 528 Z " /><path fill="rgb(250,250,247)" stroke="rgb(250,250,247)" stroke-width="1" opacity="1" d="M 104.5 528 Q 109.1 526.8 107 532 L 103 530.5 L 104.5 528 Z M 106 529 L 104 531 L 106 531 L 106 529 Z " /><path fill="rgb(250,250,247)" stroke="rgb(250,250,247)" stroke-width="1" opacity="1" d="M 125 528 Q 127.7 526.9 127 529.5 L 125.5 532 L 125 528 Z " /><path fill="rgb(250,250,247)" stroke="rgb(250,250,247)" stroke-width="1" opacity="1" d="M 175.5 528 Q 178.1 527.2 177 530.5 L 175 531.5 L 174 529.5 L 175.5 528 Z " /><path fill="rgb(250,250,247)" stroke="rgb(250,250,247)" stroke-width="1" opacity="1" d="M 201 528 Q 204.3 526.7 203 531.5 L 201 530.5 L 201 528 Z " /><path fill="rgb(250,250,247)" stroke="rgb(250,250,247)" stroke-width="1" opacity="1" d="M 229 528 L 232 528.5 L 229.5 530 L 229 528 Z " /><path fill="rgb(250,250,247)" stroke="rgb(250,250,247)" stroke-width="1" opacity="1" d="M 235.5 528 L 237 528 L 237 532 L 235 531.5 L 236 529.5 L 235.5 528 Z " /><path fill="rgb(250,250,247)" stroke="rgb(250,250,247)" stroke-width="1" opacity="1" d="M 242.5 528 Q 246.3 526.8 245 530.5 Q 243.5 533.5 242 530.5 L 244 529.5 L 242.5 528 Z " /><path fill="rgb(250,250,247)" stroke="rgb(250,250,247)" stroke-width="1" opacity="1" d="M 229.5 531 L 232 531.5 L 229.5 532 L 229.5 531 Z " /><path fill="rgb(250,250,247)" stroke="rgb(250,250,247)" stroke-width="1" opacity="1" d="M 144.5 533 L 147 533.5 L 144.5 534 L 144.5 533 Z " /><path fill="rgb(250,250,247)" stroke="rgb(250,250,247)" stroke-width="1" opacity="1" d="M 234.5 533 Q 237.8 531.9 237 534.5 L 235.5 534 L 234.5 533 Z " /><path fill="rgb(250,250,247)" stroke="rgb(250,250,247)" stroke-width="1" opacity="1" d="M 253.5 537 L 255 541.5 L 253.5 544 L 253 542 L 250 540.5 L 253 539 L 253.5 537 Z " /><path fill="rgb(250,250,247)" stroke="rgb(250,250,247)" stroke-width="1" opacity="1" d="M 45.5 566 L 358.5 566 L 360 567.5 L 359 571.5 L 359 601 L 229 600.5 L 230 598 Q 227.3 599.1 228 596.5 L 227 595.5 L 227 585 L 223.5 586 L 221 584.5 L 222 588.5 L 221 588.5 L 219.5 584 L 217.5 585 L 214.5 584 Q 213 586.5 207.5 585 L 205 584 Q 206.3 588.1 203 587 L 204 584.5 L 200 583 Q 201.1 586.3 197 585 Q 198.1 582.3 195.5 583 L 193.5 583 L 190 584.5 L 191 586.5 L 190 586.5 Q 190.8 583.9 187.5 585 L 183.5 584 L 183.5 586 L 180.5 584 L 180 585.5 L 181 587.5 L 180 587.5 L 177.5 584 L 176.5 585 L 163.5 585 L 162 584.5 L 161 586.5 L 161 588.5 Q 159.9 592.7 164 591 L 164 594.5 Q 165.2 597.8 169 597 L 169 589.5 L 170.5 589 L 170 590.5 L 171 592.5 L 168.5 598 L 166 598.5 L 167 601 L 43.5 601 L 43 600.5 L 43 571.5 L 41 568.5 L 45.5 566 Z M 47 567 L 47 568 L 357 568 L 47 567 Z M 68 569 L 68 571 L 70 570 L 68 569 Z M 99 569 L 100 571 Q 101 568 99 569 Z M 128 569 L 128 570 L 130 570 L 128 569 Z M 187 569 Q 186 572 189 571 Q 190 568 187 569 Z M 247 569 L 247 570 L 249 570 L 247 569 Z M 276 569 L 276 571 L 278 570 L 276 569 Z M 307 569 L 308 571 Q 309 568 307 569 Z M 358 572 L 357 582 L 358 582 L 358 572 Z M 169 582 L 170 584 L 176 584 L 176 582 L 169 582 Z M 232 584 L 228 587 L 228 596 L 230 597 Q 232 598 231 594 L 231 592 L 232 590 L 233 596 L 237 599 Q 239 600 238 598 L 238 596 L 239 596 L 239 587 L 238 585 Q 233 586 232 584 Z " /><path fill="rgb(250,250,247)" stroke="rgb(250,250,247)" stroke-width="1" opacity="1" d="M 216.5 586 L 217 588 L 215 587.5 L 216.5 586 Z " /><path fill="rgb(250,250,247)" stroke="rgb(250,250,247)" stroke-width="1" opacity="1" d="M 201.5 587 L 204 588.5 L 201 589 L 201.5 587 Z " /><path fill="rgb(250,250,247)" stroke="rgb(250,250,247)" stroke-width="1" opacity="1" d="M 192 588 Q 196.1 586.7 195 590 Q 191.7 588.7 193 593.5 L 194 593.5 L 194.5 592 L 195 593.5 Q 193.5 596.5 192 593.5 L 192 588 Z " /><path fill="rgb(250,250,247)" stroke="rgb(250,250,247)" stroke-width="1" opacity="1" d="M 180.5 589 L 183 590.5 L 181.5 591 L 180.5 589 Z " /><path fill="rgb(250,250,247)" stroke="rgb(250,250,247)" stroke-width="1" opacity="1" d="M 189.5 589 Q 191.8 588.3 191 590.5 L 190 595.5 L 191.5 599 L 195.5 598 L 197.5 601 L 176.5 601 L 176 597.5 Q 177.3 594.8 178.5 597 Q 181.8 598.1 181 595.5 L 180 592.5 L 181.5 593 Q 184.1 592.2 183 595.5 L 184.5 599 Q 189.9 600.9 189 597.5 L 186 596.5 L 187 592 L 189 591.5 Q 186.8 590.3 189.5 589 Z " /><path fill="rgb(250,250,247)" stroke="rgb(250,250,247)" stroke-width="1" opacity="1" d="M 207.5 589 L 214 589.5 L 207.5 590 L 207.5 589 Z " /><path fill="rgb(250,250,247)" stroke="rgb(250,250,247)" stroke-width="1" opacity="1" d="M 202.5 591 L 204 593.5 L 203 593.5 L 202.5 591 Z " /><path fill="rgb(250,250,247)" stroke="rgb(250,250,247)" stroke-width="1" opacity="1" d="M 197.5 595 L 196.5 597 L 197.5 595 Z " /><path fill="rgb(250,250,247)" stroke="rgb(250,250,247)" stroke-width="1" opacity="1" d="M 216.5 595 L 218.5 596 Q 220 593.5 221.5 597 L 224 597.5 L 220 598.5 L 223 600.5 L 216 601 Q 217.5 596.5 213 598 L 212.5 601 L 211 597.5 L 216 597 L 216.5 595 Z " /><path fill="rgb(250,250,247)" stroke="rgb(250,250,247)" stroke-width="1" opacity="1" d="M 201.5 596 L 203.5 597 L 205.5 596 L 210 597.5 L 208 598 L 208 601 L 201 601 Q 199.9 598.3 202.5 599 L 202.5 598 Q 199.7 598.7 201.5 596 Z " /><path fill="rgb(250,251,248)" stroke="rgb(250,251,248)" stroke-width="1" opacity="1" d="M 3 6 L 12.5 7 L 13.5 6 L 399 6 L 399 600.5 L 398.5 601 L 359 601 L 359 571.5 L 360 567.5 L 358.5 566 L 45.5 566 L 41 568.5 L 43 571.5 L 43 601 L 3.5 601 L 3 600.5 L 3 6 Z M 235 64 L 233 68 L 235 71 L 235 72 L 234 70 Q 231 71 233 73 Q 234 78 231 77 L 231 98 Q 229 99 232 101 L 230 101 L 226 106 L 223 107 L 220 103 L 217 105 Q 216 107 219 106 L 219 107 L 217 106 L 213 107 L 211 107 L 209 107 L 211 106 L 210 103 L 208 104 L 203 104 Q 204 107 201 106 L 200 110 L 199 110 Q 198 105 201 106 Q 203 101 197 103 Q 195 100 193 102 L 194 101 L 194 92 L 190 91 L 190 90 L 191 90 L 191 86 Q 188 85 189 89 L 186 89 L 186 86 L 184 86 Q 185 83 183 84 L 181 83 L 181 76 L 172 76 L 171 78 L 165 79 L 161 79 L 161 81 Q 158 80 159 83 L 156 84 Q 157 87 154 86 L 153 90 L 155 94 L 154 95 L 154 105 L 154 107 L 154 116 L 156 116 Q 158 117 156 119 L 159 127 L 158 131 L 161 132 L 159 137 L 159 141 Q 163 140 161 146 L 169 146 L 171 152 Q 169 158 174 156 L 175 161 L 175 160 L 177 161 L 176 169 L 171 174 Q 170 180 166 183 Q 163 182 164 185 L 161 185 L 162 192 L 161 192 L 161 194 L 160 193 L 157 197 Q 158 199 155 198 L 148 215 Q 149 220 146 220 L 146 225 L 141 225 L 141 232 L 142 233 L 134 237 L 133 242 Q 134 244 130 243 L 130 245 L 119 251 Q 121 257 116 255 L 116 260 L 115 259 L 114 261 L 110 263 L 108 270 Q 110 275 106 274 L 106 288 L 109 300 L 108 302 L 109 305 Q 108 308 111 307 L 112 305 L 113 309 L 112 308 L 108 310 L 108 314 L 104 314 L 102 318 L 99 320 L 99 321 L 94 321 L 94 334 L 95 335 Q 94 337 97 336 L 97 339 L 101 341 Q 106 340 104 344 L 110 346 L 112 346 L 112 351 L 122 351 L 123 352 Q 125 351 124 354 L 130 355 L 148 355 L 151 353 Q 156 355 158 352 L 162 354 L 169 354 L 169 351 Q 172 350 171 354 Q 177 356 175 350 L 181 349 L 181 354 L 184 354 L 184 349 L 190 348 L 192 349 L 221 349 L 222 350 Q 226 351 228 348 L 239 350 L 242 349 L 250 349 L 251 350 L 266 347 L 269 348 L 276 346 L 281 346 L 285 344 L 302 344 L 304 340 L 305 340 L 305 344 L 307 344 L 307 334 L 308 333 Q 307 329 310 330 L 311 328 L 310 326 Q 311 323 309 324 L 307 321 L 304 321 L 297 316 L 288 316 Q 289 313 285 314 L 285 311 Q 282 312 283 309 L 280 309 L 280 295 L 279 294 Q 277 288 281 289 L 280 286 L 283 287 L 284 279 L 286 277 Q 285 273 288 274 L 287 272 L 289 272 Q 291 273 290 270 L 293 270 L 293 264 L 290 264 L 289 262 L 289 248 L 289 246 L 295 245 L 295 232 L 297 228 L 296 225 Q 298 219 294 220 L 294 222 L 293 221 L 296 219 Q 295 221 298 220 L 298 215 L 295 215 L 295 212 Q 291 213 292 210 L 289 210 L 291 209 L 289 207 L 290 203 Q 287 202 288 205 L 287 205 L 288 203 Q 285 198 285 192 L 283 190 Q 284 187 281 188 L 283 185 L 283 180 L 273 177 L 275 171 L 275 169 L 280 169 L 280 165 L 274 165 L 274 150 L 273 149 Q 274 145 271 146 L 270 142 L 268 142 L 268 138 L 264 136 L 265 131 L 267 132 L 265 136 L 273 136 L 273 133 L 270 133 Q 271 130 268 131 Q 267 128 270 129 L 270 117 Q 267 117 268 113 L 266 114 L 264 113 L 264 101 L 261 99 L 259 94 L 261 91 Q 260 88 263 89 L 263 86 L 260 85 L 261 83 Q 262 77 260 76 Q 257 77 258 74 L 255 75 L 254 73 L 253 73 L 253 72 L 253 69 L 251 69 L 251 64 L 235 64 Z M 202 350 L 202 351 L 204 351 L 202 350 Z M 189 351 L 189 353 L 199 353 L 198 351 L 189 351 Z M 208 351 L 208 353 L 211 354 Q 213 350 208 351 Z M 51 452 L 51 454 L 50 453 L 47 455 L 44 460 Q 43 469 47 473 L 49 472 L 49 474 L 56 474 L 57 473 Q 61 474 60 472 L 64 470 L 65 470 L 65 473 Q 68 472 67 475 L 70 474 L 72 475 L 74 475 Q 76 476 75 473 L 93 473 L 94 472 L 102 474 Q 108 475 111 472 L 113 472 L 114 474 L 118 474 L 117 473 L 120 474 L 123 472 L 122 470 L 122 462 L 119 461 L 119 454 L 116 453 L 115 452 L 112 455 L 109 452 L 108 453 L 104 452 L 98 455 L 96 455 L 95 453 L 93 452 L 91 453 L 86 452 L 83 453 L 84 455 L 83 454 L 81 455 L 80 453 L 78 452 L 76 453 L 73 452 L 71 452 L 67 455 L 64 459 L 60 457 L 60 453 L 58 454 L 51 452 Z M 51 475 L 51 476 L 56 476 L 51 475 Z M 60 489 L 59 490 Q 55 489 56 492 Q 51 493 50 490 Q 45 489 44 492 L 44 509 L 46 512 L 50 510 L 49 508 L 52 507 L 53 512 L 59 513 L 64 512 L 66 509 L 69 511 Q 71 510 70 513 L 78 512 L 77 510 L 79 507 L 80 507 L 80 498 L 80 496 L 78 492 L 72 491 L 72 489 L 66 492 L 63 492 L 61 493 Q 62 488 60 489 Z M 94 489 L 90 490 L 87 493 L 87 507 L 87 509 L 88 511 Q 87 513 90 512 Q 91 510 93 513 Q 95 514 94 511 L 96 510 L 95 512 L 107 512 L 108 513 L 109 512 L 119 512 L 120 511 L 130 513 Q 138 515 141 510 L 141 512 L 155 512 L 156 511 L 159 515 L 159 512 L 165 511 L 170 513 L 173 512 L 176 507 L 176 511 L 180 513 L 183 511 Q 186 514 194 512 L 195 513 L 200 509 L 199 508 L 199 501 L 201 501 L 199 500 L 199 497 L 208 497 L 208 493 L 205 490 L 192 490 L 188 490 L 178 490 L 177 491 L 169 489 L 168 492 Q 165 493 166 491 L 165 491 L 163 490 Q 157 488 158 492 Q 154 493 152 490 L 144 490 L 143 489 L 142 490 L 129 490 L 127 490 L 114 490 L 113 489 L 108 490 Q 105 492 106 497 L 103 492 L 101 492 L 103 491 L 96 489 L 95 492 L 94 489 Z M 52 522 Q 50 525 45 523 L 43 525 Q 41 534 46 536 Q 45 538 48 537 L 46 534 L 50 532 L 51 533 L 49 534 L 52 535 L 55 535 L 55 537 Q 58 536 58 539 L 65 539 L 67 535 L 67 537 Q 71 538 70 536 L 70 534 L 73 535 L 72 537 L 77 537 L 77 534 L 80 533 L 83 535 L 86 534 L 89 535 Q 91 534 90 537 L 92 537 L 92 539 L 95 539 L 96 536 L 96 534 Q 101 532 99 538 L 102 539 L 103 534 L 107 536 L 108 537 L 117 537 L 118 539 L 137 539 L 137 542 L 144 542 L 144 539 Q 141 540 142 537 L 139 537 L 139 534 L 141 534 L 140 532 L 141 529 Q 143 528 142 531 Q 145 532 144 530 L 145 530 L 144 534 L 147 534 Q 148 532 149 535 L 149 537 L 156 537 L 157 539 L 166 539 Q 165 534 168 533 L 169 539 L 173 537 L 173 535 L 171 535 L 174 533 Q 175 536 180 535 L 183 534 L 184 538 L 189 539 L 191 533 L 190 531 L 192 531 L 192 530 L 192 528 L 193 529 L 193 534 L 197 536 Q 196 538 199 537 L 201 534 L 204 535 L 203 537 L 207 539 L 228 539 L 227 535 L 230 534 Q 231 537 233 533 L 237 535 L 237 534 L 238 534 L 238 537 Q 242 536 241 539 L 248 539 L 249 534 L 252 535 L 251 534 L 254 533 L 254 535 Q 259 536 260 533 L 260 528 Q 257 528 258 524 L 253 525 L 250 524 L 250 526 L 249 524 L 247 527 L 246 524 L 244 525 L 243 522 L 241 523 L 239 522 L 211 522 L 210 525 L 207 524 L 203 524 L 200 526 Q 197 527 198 525 L 197 525 L 194 524 L 195 527 L 193 527 L 190 525 L 188 526 L 187 524 L 185 522 L 183 525 L 180 527 L 181 524 L 179 525 L 172 524 L 172 526 L 171 522 L 163 522 L 162 524 Q 158 523 156 526 L 153 524 L 152 526 L 151 525 L 149 524 L 145 527 L 140 525 L 136 526 Q 137 523 130 524 L 130 526 Q 129 523 124 524 L 124 526 L 122 526 L 122 524 L 115 524 L 114 526 Q 116 527 114 528 L 114 527 L 112 522 L 109 522 L 104 525 L 106 526 L 105 526 L 101 524 L 96 527 L 94 526 L 94 524 L 90 524 L 90 522 L 86 524 L 84 524 Q 81 525 82 529 L 80 530 L 80 529 L 79 527 L 80 524 L 73 527 L 69 526 L 71 525 L 69 524 L 67 528 L 67 527 Q 66 523 61 524 L 59 524 L 56 525 L 56 524 L 52 522 Z M 254 537 L 253 539 L 250 541 L 253 542 L 254 544 L 255 542 L 254 537 Z " /><path fill="rgb(250,251,248)" stroke="rgb(250,251,248)" stroke-width="1" opacity="1" d="M 268.5 174 Q 270.8 173.3 270 175.5 L 268.5 174 Z " /><path fill="rgb(250,251,248)" stroke="rgb(250,251,248)" stroke-width="1" opacity="1" d="M 290.5 238 L 291 242.5 L 290 242.5 L 290.5 238 Z " /><path fill="rgb(250,251,248)" stroke="rgb(250,251,248)" stroke-width="1" opacity="1" d="M 81.5 457 L 82 459 L 80 458.5 L 81.5 457 Z " /><path fill="rgb(250,251,248)" stroke="rgb(250,251,248)" stroke-width="1" opacity="1" d="M 52.5 460 L 53 463 Q 56.8 461.5 56 464.5 L 56.5 466 L 54.5 465 L 55.5 468 L 51 467 L 52.5 460 Z " /><path fill="rgb(250,251,248)" stroke="rgb(250,251,248)" stroke-width="1" opacity="1" d="M 89.5 460 L 92 460.5 Q 89.9 463.8 89.5 460 Z " /><path fill="rgb(250,251,248)" stroke="rgb(250,251,248)" stroke-width="1" opacity="1" d="M 108.5 460 L 112 461.5 L 109.5 462 L 108.5 460 Z " /><path fill="rgb(250,251,248)" stroke="rgb(250,251,248)" stroke-width="1" opacity="1" d="M 157.5 495 L 158 499.5 L 157 499.5 L 157.5 495 Z " /><path fill="rgb(250,251,248)" stroke="rgb(250,251,248)" stroke-width="1" opacity="1" d="M 189.5 497 L 191 502 Q 194.3 500.9 193 505 L 188.5 504 L 185.5 505 L 186.5 503 Q 189.1 503.8 188 500.5 L 189.5 497 Z " /><path fill="rgb(250,251,248)" stroke="rgb(250,251,248)" stroke-width="1" opacity="1" d="M 112.5 499 L 117 500 L 117 510 L 113.5 510 L 112 508.5 L 112 502 Q 115 503 114 500 L 112.5 499 Z " /><path fill="rgb(250,251,248)" stroke="rgb(250,251,248)" stroke-width="1" opacity="1" d="M 70.5 500 Q 75.3 498.7 74 502 Q 71 501 72 504 L 69.5 504 L 68 501 L 70.5 500 Z " /><path fill="rgb(250,251,248)" stroke="rgb(250,251,248)" stroke-width="1" opacity="1" d="M 182 503 Q 185 502 184 505 Q 181 506 182 503 Z " /><path fill="rgb(250,251,248)" stroke="rgb(250,251,248)" stroke-width="1" opacity="1" d="M 141.5 504 L 141.5 507 Q 138.5 505.5 141.5 504 Z " /><path fill="rgb(250,251,248)" stroke="rgb(250,251,248)" stroke-width="1" opacity="1" d="M 122 506 L 127 506 L 127 507.5 L 125.5 507 Q 123.3 506.3 124 508.5 L 122 509.5 L 122 506 Z " /><path fill="rgb(250,251,248)" stroke="rgb(250,251,248)" stroke-width="1" opacity="1" d="M 222.5 525 L 226 526.5 L 224.5 526 L 221.5 527 L 222.5 525 Z " /><path fill="rgb(250,251,248)" stroke="rgb(250,251,248)" stroke-width="1" opacity="1" d="M 105.5 529 L 106 531 L 104 530.5 L 105.5 529 Z " /><path fill="rgb(250,251,248)" stroke="rgb(250,251,248)" stroke-width="1" opacity="1" d="M 230.5 529 L 231 531 L 229 530.5 L 230.5 529 Z " /><path fill="rgb(250,251,248)" stroke="rgb(250,251,248)" stroke-width="1" opacity="1" d="M 256.5 529 L 258 529.5 L 255.5 531 L 256.5 529 Z " /><path fill="rgb(250,251,248)" stroke="rgb(250,251,248)" stroke-width="1" opacity="1" d="M 215.5 533 L 214.5 535 L 215.5 533 Z " /><path fill="rgb(250,251,248)" stroke="rgb(250,251,248)" stroke-width="1" opacity="1" d="M 46.5 567 L 357 567.5 L 46.5 568 L 46.5 567 Z " /></svg>
